<mxfile host="drawio-plugin" modified="2023-08-15T09:59:06.701Z" agent="5.0 (Windows NT 6.2; Win64; x64) AppleWebKit/537.36 (KHTML, like Gecko) Chrome/104.0.5112.102 Safari/537.36" etag="6jGUMELS2mB_-JP5L5cJ" version="20.5.3" type="embed" pages="2"><diagram name="ERD" id="q2lc0j2ZpurWHX4ODKi5"><mxGraphModel dx="1764" dy="719" grid="1" gridSize="10" guides="1" tooltips="1" connect="1" arrows="1" fold="1" page="1" pageScale="1" pageWidth="827" pageHeight="1169" math="0" shadow="0"><root><mxCell id="0"/><mxCell id="1" parent="0"/><mxCell id="BuA_VaYUcc9Jglw6k9gA-2" value="users" style="shape=table;startSize=30;container=1;collapsible=1;childLayout=tableLayout;fixedRows=1;rowLines=0;fontStyle=1;align=center;resizeLast=1;html=1;" parent="1" vertex="1"><mxGeometry x="234" y="45" width="180" height="330" as="geometry"/></mxCell><mxCell id="BuA_VaYUcc9Jglw6k9gA-3" value="" style="shape=tableRow;horizontal=0;startSize=0;swimlaneHead=0;swimlaneBody=0;fillColor=none;collapsible=0;dropTarget=0;points=[[0,0.5],[1,0.5]];portConstraint=eastwest;top=0;left=0;right=0;bottom=1;" parent="BuA_VaYUcc9Jglw6k9gA-2" vertex="1"><mxGeometry y="30" width="180" height="30" as="geometry"/></mxCell><mxCell id="BuA_VaYUcc9Jglw6k9gA-4" value="PK" style="shape=partialRectangle;connectable=0;fillColor=none;top=0;left=0;bottom=0;right=0;fontStyle=1;overflow=hidden;whiteSpace=wrap;html=1;" parent="BuA_VaYUcc9Jglw6k9gA-3" vertex="1"><mxGeometry width="30" height="30" as="geometry"><mxRectangle width="30" height="30" as="alternateBounds"/></mxGeometry></mxCell><mxCell id="BuA_VaYUcc9Jglw6k9gA-5" value="user_id(str)" style="shape=partialRectangle;connectable=0;fillColor=none;top=0;left=0;bottom=0;right=0;align=left;spacingLeft=6;fontStyle=5;overflow=hidden;whiteSpace=wrap;html=1;" parent="BuA_VaYUcc9Jglw6k9gA-3" vertex="1"><mxGeometry x="30" width="150" height="30" as="geometry"><mxRectangle width="150" height="30" as="alternateBounds"/></mxGeometry></mxCell><mxCell id="BuA_VaYUcc9Jglw6k9gA-6" value="" style="shape=tableRow;horizontal=0;startSize=0;swimlaneHead=0;swimlaneBody=0;fillColor=none;collapsible=0;dropTarget=0;points=[[0,0.5],[1,0.5]];portConstraint=eastwest;top=0;left=0;right=0;bottom=0;" parent="BuA_VaYUcc9Jglw6k9gA-2" vertex="1"><mxGeometry y="60" width="180" height="30" as="geometry"/></mxCell><mxCell id="BuA_VaYUcc9Jglw6k9gA-7" value="" style="shape=partialRectangle;connectable=0;fillColor=none;top=0;left=0;bottom=0;right=0;editable=1;overflow=hidden;whiteSpace=wrap;html=1;" parent="BuA_VaYUcc9Jglw6k9gA-6" vertex="1"><mxGeometry width="30" height="30" as="geometry"><mxRectangle width="30" height="30" as="alternateBounds"/></mxGeometry></mxCell><mxCell id="BuA_VaYUcc9Jglw6k9gA-8" value="name(str)" style="shape=partialRectangle;connectable=0;fillColor=none;top=0;left=0;bottom=0;right=0;align=left;spacingLeft=6;overflow=hidden;whiteSpace=wrap;html=1;" parent="BuA_VaYUcc9Jglw6k9gA-6" vertex="1"><mxGeometry x="30" width="150" height="30" as="geometry"><mxRectangle width="150" height="30" as="alternateBounds"/></mxGeometry></mxCell><mxCell id="BuA_VaYUcc9Jglw6k9gA-174" style="shape=tableRow;horizontal=0;startSize=0;swimlaneHead=0;swimlaneBody=0;fillColor=none;collapsible=0;dropTarget=0;points=[[0,0.5],[1,0.5]];portConstraint=eastwest;top=0;left=0;right=0;bottom=0;" parent="BuA_VaYUcc9Jglw6k9gA-2" vertex="1"><mxGeometry y="90" width="180" height="30" as="geometry"/></mxCell><mxCell id="BuA_VaYUcc9Jglw6k9gA-175" style="shape=partialRectangle;connectable=0;fillColor=none;top=0;left=0;bottom=0;right=0;editable=1;overflow=hidden;whiteSpace=wrap;html=1;" parent="BuA_VaYUcc9Jglw6k9gA-174" vertex="1"><mxGeometry width="30" height="30" as="geometry"><mxRectangle width="30" height="30" as="alternateBounds"/></mxGeometry></mxCell><mxCell id="BuA_VaYUcc9Jglw6k9gA-176" value="password(str)" style="shape=partialRectangle;connectable=0;fillColor=none;top=0;left=0;bottom=0;right=0;align=left;spacingLeft=6;overflow=hidden;whiteSpace=wrap;html=1;" parent="BuA_VaYUcc9Jglw6k9gA-174" vertex="1"><mxGeometry x="30" width="150" height="30" as="geometry"><mxRectangle width="150" height="30" as="alternateBounds"/></mxGeometry></mxCell><mxCell id="BuA_VaYUcc9Jglw6k9gA-9" value="" style="shape=tableRow;horizontal=0;startSize=0;swimlaneHead=0;swimlaneBody=0;fillColor=none;collapsible=0;dropTarget=0;points=[[0,0.5],[1,0.5]];portConstraint=eastwest;top=0;left=0;right=0;bottom=0;" parent="BuA_VaYUcc9Jglw6k9gA-2" vertex="1"><mxGeometry y="120" width="180" height="30" as="geometry"/></mxCell><mxCell id="BuA_VaYUcc9Jglw6k9gA-10" value="" style="shape=partialRectangle;connectable=0;fillColor=none;top=0;left=0;bottom=0;right=0;editable=1;overflow=hidden;whiteSpace=wrap;html=1;" parent="BuA_VaYUcc9Jglw6k9gA-9" vertex="1"><mxGeometry width="30" height="30" as="geometry"><mxRectangle width="30" height="30" as="alternateBounds"/></mxGeometry></mxCell><mxCell id="BuA_VaYUcc9Jglw6k9gA-11" value="email(str)" style="shape=partialRectangle;connectable=0;fillColor=none;top=0;left=0;bottom=0;right=0;align=left;spacingLeft=6;overflow=hidden;whiteSpace=wrap;html=1;" parent="BuA_VaYUcc9Jglw6k9gA-9" vertex="1"><mxGeometry x="30" width="150" height="30" as="geometry"><mxRectangle width="150" height="30" as="alternateBounds"/></mxGeometry></mxCell><mxCell id="BuA_VaYUcc9Jglw6k9gA-161" style="shape=tableRow;horizontal=0;startSize=0;swimlaneHead=0;swimlaneBody=0;fillColor=none;collapsible=0;dropTarget=0;points=[[0,0.5],[1,0.5]];portConstraint=eastwest;top=0;left=0;right=0;bottom=0;" parent="BuA_VaYUcc9Jglw6k9gA-2" vertex="1"><mxGeometry y="150" width="180" height="30" as="geometry"/></mxCell><mxCell id="BuA_VaYUcc9Jglw6k9gA-162" style="shape=partialRectangle;connectable=0;fillColor=none;top=0;left=0;bottom=0;right=0;editable=1;overflow=hidden;whiteSpace=wrap;html=1;" parent="BuA_VaYUcc9Jglw6k9gA-161" vertex="1"><mxGeometry width="30" height="30" as="geometry"><mxRectangle width="30" height="30" as="alternateBounds"/></mxGeometry></mxCell><mxCell id="BuA_VaYUcc9Jglw6k9gA-163" value="token(str)" style="shape=partialRectangle;connectable=0;fillColor=none;top=0;left=0;bottom=0;right=0;align=left;spacingLeft=6;overflow=hidden;whiteSpace=wrap;html=1;" parent="BuA_VaYUcc9Jglw6k9gA-161" vertex="1"><mxGeometry x="30" width="150" height="30" as="geometry"><mxRectangle width="150" height="30" as="alternateBounds"/></mxGeometry></mxCell><mxCell id="BuA_VaYUcc9Jglw6k9gA-177" style="shape=tableRow;horizontal=0;startSize=0;swimlaneHead=0;swimlaneBody=0;fillColor=none;collapsible=0;dropTarget=0;points=[[0,0.5],[1,0.5]];portConstraint=eastwest;top=0;left=0;right=0;bottom=0;" parent="BuA_VaYUcc9Jglw6k9gA-2" vertex="1"><mxGeometry y="180" width="180" height="30" as="geometry"/></mxCell><mxCell id="BuA_VaYUcc9Jglw6k9gA-178" style="shape=partialRectangle;connectable=0;fillColor=none;top=0;left=0;bottom=0;right=0;editable=1;overflow=hidden;whiteSpace=wrap;html=1;" parent="BuA_VaYUcc9Jglw6k9gA-177" vertex="1"><mxGeometry width="30" height="30" as="geometry"><mxRectangle width="30" height="30" as="alternateBounds"/></mxGeometry></mxCell><mxCell id="BuA_VaYUcc9Jglw6k9gA-179" value="activated(bool)" style="shape=partialRectangle;connectable=0;fillColor=none;top=0;left=0;bottom=0;right=0;align=left;spacingLeft=6;overflow=hidden;whiteSpace=wrap;html=1;" parent="BuA_VaYUcc9Jglw6k9gA-177" vertex="1"><mxGeometry x="30" width="150" height="30" as="geometry"><mxRectangle width="150" height="30" as="alternateBounds"/></mxGeometry></mxCell><mxCell id="o7iYVr3Ehm1Dqb1L-emY-1" style="shape=tableRow;horizontal=0;startSize=0;swimlaneHead=0;swimlaneBody=0;fillColor=none;collapsible=0;dropTarget=0;points=[[0,0.5],[1,0.5]];portConstraint=eastwest;top=0;left=0;right=0;bottom=0;" parent="BuA_VaYUcc9Jglw6k9gA-2" vertex="1"><mxGeometry y="210" width="180" height="30" as="geometry"/></mxCell><mxCell id="o7iYVr3Ehm1Dqb1L-emY-2" style="shape=partialRectangle;connectable=0;fillColor=none;top=0;left=0;bottom=0;right=0;editable=1;overflow=hidden;whiteSpace=wrap;html=1;" parent="o7iYVr3Ehm1Dqb1L-emY-1" vertex="1"><mxGeometry width="30" height="30" as="geometry"><mxRectangle width="30" height="30" as="alternateBounds"/></mxGeometry></mxCell><mxCell id="o7iYVr3Ehm1Dqb1L-emY-3" value="suspend(bool)" style="shape=partialRectangle;connectable=0;fillColor=none;top=0;left=0;bottom=0;right=0;align=left;spacingLeft=6;overflow=hidden;whiteSpace=wrap;html=1;" parent="o7iYVr3Ehm1Dqb1L-emY-1" vertex="1"><mxGeometry x="30" width="150" height="30" as="geometry"><mxRectangle width="150" height="30" as="alternateBounds"/></mxGeometry></mxCell><mxCell id="BuA_VaYUcc9Jglw6k9gA-183" style="shape=tableRow;horizontal=0;startSize=0;swimlaneHead=0;swimlaneBody=0;fillColor=none;collapsible=0;dropTarget=0;points=[[0,0.5],[1,0.5]];portConstraint=eastwest;top=0;left=0;right=0;bottom=0;" parent="BuA_VaYUcc9Jglw6k9gA-2" vertex="1"><mxGeometry y="240" width="180" height="30" as="geometry"/></mxCell><mxCell id="BuA_VaYUcc9Jglw6k9gA-184" style="shape=partialRectangle;connectable=0;fillColor=none;top=0;left=0;bottom=0;right=0;editable=1;overflow=hidden;whiteSpace=wrap;html=1;" parent="BuA_VaYUcc9Jglw6k9gA-183" vertex="1"><mxGeometry width="30" height="30" as="geometry"><mxRectangle width="30" height="30" as="alternateBounds"/></mxGeometry></mxCell><mxCell id="BuA_VaYUcc9Jglw6k9gA-185" value="created_at(timestamp)" style="shape=partialRectangle;connectable=0;fillColor=none;top=0;left=0;bottom=0;right=0;align=left;spacingLeft=6;overflow=hidden;whiteSpace=wrap;html=1;" parent="BuA_VaYUcc9Jglw6k9gA-183" vertex="1"><mxGeometry x="30" width="150" height="30" as="geometry"><mxRectangle width="150" height="30" as="alternateBounds"/></mxGeometry></mxCell><mxCell id="BuA_VaYUcc9Jglw6k9gA-186" style="shape=tableRow;horizontal=0;startSize=0;swimlaneHead=0;swimlaneBody=0;fillColor=none;collapsible=0;dropTarget=0;points=[[0,0.5],[1,0.5]];portConstraint=eastwest;top=0;left=0;right=0;bottom=0;" parent="BuA_VaYUcc9Jglw6k9gA-2" vertex="1"><mxGeometry y="270" width="180" height="30" as="geometry"/></mxCell><mxCell id="BuA_VaYUcc9Jglw6k9gA-187" style="shape=partialRectangle;connectable=0;fillColor=none;top=0;left=0;bottom=0;right=0;editable=1;overflow=hidden;whiteSpace=wrap;html=1;" parent="BuA_VaYUcc9Jglw6k9gA-186" vertex="1"><mxGeometry width="30" height="30" as="geometry"><mxRectangle width="30" height="30" as="alternateBounds"/></mxGeometry></mxCell><mxCell id="BuA_VaYUcc9Jglw6k9gA-188" value="updated_at(timestamp)" style="shape=partialRectangle;connectable=0;fillColor=none;top=0;left=0;bottom=0;right=0;align=left;spacingLeft=6;overflow=hidden;whiteSpace=wrap;html=1;" parent="BuA_VaYUcc9Jglw6k9gA-186" vertex="1"><mxGeometry x="30" width="150" height="30" as="geometry"><mxRectangle width="150" height="30" as="alternateBounds"/></mxGeometry></mxCell><mxCell id="BuA_VaYUcc9Jglw6k9gA-12" value="" style="shape=tableRow;horizontal=0;startSize=0;swimlaneHead=0;swimlaneBody=0;fillColor=none;collapsible=0;dropTarget=0;points=[[0,0.5],[1,0.5]];portConstraint=eastwest;top=0;left=0;right=0;bottom=0;" parent="BuA_VaYUcc9Jglw6k9gA-2" vertex="1"><mxGeometry y="300" width="180" height="30" as="geometry"/></mxCell><mxCell id="BuA_VaYUcc9Jglw6k9gA-13" value="FK" style="shape=partialRectangle;connectable=0;fillColor=none;top=0;left=0;bottom=0;right=0;editable=1;overflow=hidden;whiteSpace=wrap;html=1;" parent="BuA_VaYUcc9Jglw6k9gA-12" vertex="1"><mxGeometry width="30" height="30" as="geometry"><mxRectangle width="30" height="30" as="alternateBounds"/></mxGeometry></mxCell><mxCell id="BuA_VaYUcc9Jglw6k9gA-14" value="roles_id(int)" style="shape=partialRectangle;connectable=0;fillColor=none;top=0;left=0;bottom=0;right=0;align=left;spacingLeft=6;overflow=hidden;whiteSpace=wrap;html=1;" parent="BuA_VaYUcc9Jglw6k9gA-12" vertex="1"><mxGeometry x="30" width="150" height="30" as="geometry"><mxRectangle width="150" height="30" as="alternateBounds"/></mxGeometry></mxCell><mxCell id="BuA_VaYUcc9Jglw6k9gA-15" value="roles" style="shape=table;startSize=30;container=1;collapsible=1;childLayout=tableLayout;fixedRows=1;rowLines=0;fontStyle=1;align=center;resizeLast=1;html=1;" parent="1" vertex="1"><mxGeometry x="480" y="220" width="180" height="90" as="geometry"/></mxCell><mxCell id="BuA_VaYUcc9Jglw6k9gA-16" value="" style="shape=tableRow;horizontal=0;startSize=0;swimlaneHead=0;swimlaneBody=0;fillColor=none;collapsible=0;dropTarget=0;points=[[0,0.5],[1,0.5]];portConstraint=eastwest;top=0;left=0;right=0;bottom=1;" parent="BuA_VaYUcc9Jglw6k9gA-15" vertex="1"><mxGeometry y="30" width="180" height="30" as="geometry"/></mxCell><mxCell id="BuA_VaYUcc9Jglw6k9gA-17" value="PK" style="shape=partialRectangle;connectable=0;fillColor=none;top=0;left=0;bottom=0;right=0;fontStyle=1;overflow=hidden;whiteSpace=wrap;html=1;" parent="BuA_VaYUcc9Jglw6k9gA-16" vertex="1"><mxGeometry width="30" height="30" as="geometry"><mxRectangle width="30" height="30" as="alternateBounds"/></mxGeometry></mxCell><mxCell id="BuA_VaYUcc9Jglw6k9gA-18" value="role_id(int)" style="shape=partialRectangle;connectable=0;fillColor=none;top=0;left=0;bottom=0;right=0;align=left;spacingLeft=6;fontStyle=5;overflow=hidden;whiteSpace=wrap;html=1;" parent="BuA_VaYUcc9Jglw6k9gA-16" vertex="1"><mxGeometry x="30" width="150" height="30" as="geometry"><mxRectangle width="150" height="30" as="alternateBounds"/></mxGeometry></mxCell><mxCell id="BuA_VaYUcc9Jglw6k9gA-19" value="" style="shape=tableRow;horizontal=0;startSize=0;swimlaneHead=0;swimlaneBody=0;fillColor=none;collapsible=0;dropTarget=0;points=[[0,0.5],[1,0.5]];portConstraint=eastwest;top=0;left=0;right=0;bottom=0;" parent="BuA_VaYUcc9Jglw6k9gA-15" vertex="1"><mxGeometry y="60" width="180" height="30" as="geometry"/></mxCell><mxCell id="BuA_VaYUcc9Jglw6k9gA-20" value="" style="shape=partialRectangle;connectable=0;fillColor=none;top=0;left=0;bottom=0;right=0;editable=1;overflow=hidden;whiteSpace=wrap;html=1;" parent="BuA_VaYUcc9Jglw6k9gA-19" vertex="1"><mxGeometry width="30" height="30" as="geometry"><mxRectangle width="30" height="30" as="alternateBounds"/></mxGeometry></mxCell><mxCell id="BuA_VaYUcc9Jglw6k9gA-21" value="name(str)" style="shape=partialRectangle;connectable=0;fillColor=none;top=0;left=0;bottom=0;right=0;align=left;spacingLeft=6;overflow=hidden;whiteSpace=wrap;html=1;" parent="BuA_VaYUcc9Jglw6k9gA-19" vertex="1"><mxGeometry x="30" width="150" height="30" as="geometry"><mxRectangle width="150" height="30" as="alternateBounds"/></mxGeometry></mxCell><mxCell id="BuA_VaYUcc9Jglw6k9gA-41" value="questions" style="shape=table;startSize=30;container=1;collapsible=1;childLayout=tableLayout;fixedRows=1;rowLines=0;fontStyle=1;align=center;resizeLast=1;html=1;" parent="1" vertex="1"><mxGeometry x="-280" y="240" width="180" height="240" as="geometry"/></mxCell><mxCell id="BuA_VaYUcc9Jglw6k9gA-42" value="" style="shape=tableRow;horizontal=0;startSize=0;swimlaneHead=0;swimlaneBody=0;fillColor=none;collapsible=0;dropTarget=0;points=[[0,0.5],[1,0.5]];portConstraint=eastwest;top=0;left=0;right=0;bottom=1;" parent="BuA_VaYUcc9Jglw6k9gA-41" vertex="1"><mxGeometry y="30" width="180" height="30" as="geometry"/></mxCell><mxCell id="BuA_VaYUcc9Jglw6k9gA-43" value="PK" style="shape=partialRectangle;connectable=0;fillColor=none;top=0;left=0;bottom=0;right=0;fontStyle=1;overflow=hidden;whiteSpace=wrap;html=1;" parent="BuA_VaYUcc9Jglw6k9gA-42" vertex="1"><mxGeometry width="30" height="30" as="geometry"><mxRectangle width="30" height="30" as="alternateBounds"/></mxGeometry></mxCell><mxCell id="BuA_VaYUcc9Jglw6k9gA-44" value="question_id(int)" style="shape=partialRectangle;connectable=0;fillColor=none;top=0;left=0;bottom=0;right=0;align=left;spacingLeft=6;fontStyle=5;overflow=hidden;whiteSpace=wrap;html=1;" parent="BuA_VaYUcc9Jglw6k9gA-42" vertex="1"><mxGeometry x="30" width="150" height="30" as="geometry"><mxRectangle width="150" height="30" as="alternateBounds"/></mxGeometry></mxCell><mxCell id="BuA_VaYUcc9Jglw6k9gA-45" value="" style="shape=tableRow;horizontal=0;startSize=0;swimlaneHead=0;swimlaneBody=0;fillColor=none;collapsible=0;dropTarget=0;points=[[0,0.5],[1,0.5]];portConstraint=eastwest;top=0;left=0;right=0;bottom=0;" parent="BuA_VaYUcc9Jglw6k9gA-41" vertex="1"><mxGeometry y="60" width="180" height="30" as="geometry"/></mxCell><mxCell id="BuA_VaYUcc9Jglw6k9gA-46" value="" style="shape=partialRectangle;connectable=0;fillColor=none;top=0;left=0;bottom=0;right=0;editable=1;overflow=hidden;whiteSpace=wrap;html=1;" parent="BuA_VaYUcc9Jglw6k9gA-45" vertex="1"><mxGeometry width="30" height="30" as="geometry"><mxRectangle width="30" height="30" as="alternateBounds"/></mxGeometry></mxCell><mxCell id="BuA_VaYUcc9Jglw6k9gA-47" value="question(str)" style="shape=partialRectangle;connectable=0;fillColor=none;top=0;left=0;bottom=0;right=0;align=left;spacingLeft=6;overflow=hidden;whiteSpace=wrap;html=1;" parent="BuA_VaYUcc9Jglw6k9gA-45" vertex="1"><mxGeometry x="30" width="150" height="30" as="geometry"><mxRectangle width="150" height="30" as="alternateBounds"/></mxGeometry></mxCell><mxCell id="BuA_VaYUcc9Jglw6k9gA-198" style="shape=tableRow;horizontal=0;startSize=0;swimlaneHead=0;swimlaneBody=0;fillColor=none;collapsible=0;dropTarget=0;points=[[0,0.5],[1,0.5]];portConstraint=eastwest;top=0;left=0;right=0;bottom=0;" parent="BuA_VaYUcc9Jglw6k9gA-41" vertex="1"><mxGeometry y="90" width="180" height="30" as="geometry"/></mxCell><mxCell id="BuA_VaYUcc9Jglw6k9gA-199" style="shape=partialRectangle;connectable=0;fillColor=none;top=0;left=0;bottom=0;right=0;editable=1;overflow=hidden;whiteSpace=wrap;html=1;" parent="BuA_VaYUcc9Jglw6k9gA-198" vertex="1"><mxGeometry width="30" height="30" as="geometry"><mxRectangle width="30" height="30" as="alternateBounds"/></mxGeometry></mxCell><mxCell id="BuA_VaYUcc9Jglw6k9gA-200" value="time(int)" style="shape=partialRectangle;connectable=0;fillColor=none;top=0;left=0;bottom=0;right=0;align=left;spacingLeft=6;overflow=hidden;whiteSpace=wrap;html=1;" parent="BuA_VaYUcc9Jglw6k9gA-198" vertex="1"><mxGeometry x="30" width="150" height="30" as="geometry"><mxRectangle width="150" height="30" as="alternateBounds"/></mxGeometry></mxCell><mxCell id="BuA_VaYUcc9Jglw6k9gA-201" style="shape=tableRow;horizontal=0;startSize=0;swimlaneHead=0;swimlaneBody=0;fillColor=none;collapsible=0;dropTarget=0;points=[[0,0.5],[1,0.5]];portConstraint=eastwest;top=0;left=0;right=0;bottom=0;" parent="BuA_VaYUcc9Jglw6k9gA-41" vertex="1"><mxGeometry y="120" width="180" height="30" as="geometry"/></mxCell><mxCell id="BuA_VaYUcc9Jglw6k9gA-202" style="shape=partialRectangle;connectable=0;fillColor=none;top=0;left=0;bottom=0;right=0;editable=1;overflow=hidden;whiteSpace=wrap;html=1;" parent="BuA_VaYUcc9Jglw6k9gA-201" vertex="1"><mxGeometry width="30" height="30" as="geometry"><mxRectangle width="30" height="30" as="alternateBounds"/></mxGeometry></mxCell><mxCell id="BuA_VaYUcc9Jglw6k9gA-203" value="score(int)" style="shape=partialRectangle;connectable=0;fillColor=none;top=0;left=0;bottom=0;right=0;align=left;spacingLeft=6;overflow=hidden;whiteSpace=wrap;html=1;" parent="BuA_VaYUcc9Jglw6k9gA-201" vertex="1"><mxGeometry x="30" width="150" height="30" as="geometry"><mxRectangle width="150" height="30" as="alternateBounds"/></mxGeometry></mxCell><mxCell id="BuA_VaYUcc9Jglw6k9gA-189" style="shape=tableRow;horizontal=0;startSize=0;swimlaneHead=0;swimlaneBody=0;fillColor=none;collapsible=0;dropTarget=0;points=[[0,0.5],[1,0.5]];portConstraint=eastwest;top=0;left=0;right=0;bottom=0;" parent="BuA_VaYUcc9Jglw6k9gA-41" vertex="1"><mxGeometry y="150" width="180" height="30" as="geometry"/></mxCell><mxCell id="BuA_VaYUcc9Jglw6k9gA-190" style="shape=partialRectangle;connectable=0;fillColor=none;top=0;left=0;bottom=0;right=0;editable=1;overflow=hidden;whiteSpace=wrap;html=1;" parent="BuA_VaYUcc9Jglw6k9gA-189" vertex="1"><mxGeometry width="30" height="30" as="geometry"><mxRectangle width="30" height="30" as="alternateBounds"/></mxGeometry></mxCell><mxCell id="BuA_VaYUcc9Jglw6k9gA-191" value="created_at(timestamp)" style="shape=partialRectangle;connectable=0;fillColor=none;top=0;left=0;bottom=0;right=0;align=left;spacingLeft=6;overflow=hidden;whiteSpace=wrap;html=1;" parent="BuA_VaYUcc9Jglw6k9gA-189" vertex="1"><mxGeometry x="30" width="150" height="30" as="geometry"><mxRectangle width="150" height="30" as="alternateBounds"/></mxGeometry></mxCell><mxCell id="BuA_VaYUcc9Jglw6k9gA-192" style="shape=tableRow;horizontal=0;startSize=0;swimlaneHead=0;swimlaneBody=0;fillColor=none;collapsible=0;dropTarget=0;points=[[0,0.5],[1,0.5]];portConstraint=eastwest;top=0;left=0;right=0;bottom=0;" parent="BuA_VaYUcc9Jglw6k9gA-41" vertex="1"><mxGeometry y="180" width="180" height="30" as="geometry"/></mxCell><mxCell id="BuA_VaYUcc9Jglw6k9gA-193" style="shape=partialRectangle;connectable=0;fillColor=none;top=0;left=0;bottom=0;right=0;editable=1;overflow=hidden;whiteSpace=wrap;html=1;" parent="BuA_VaYUcc9Jglw6k9gA-192" vertex="1"><mxGeometry width="30" height="30" as="geometry"><mxRectangle width="30" height="30" as="alternateBounds"/></mxGeometry></mxCell><mxCell id="BuA_VaYUcc9Jglw6k9gA-194" value="updated_at(timestamp)" style="shape=partialRectangle;connectable=0;fillColor=none;top=0;left=0;bottom=0;right=0;align=left;spacingLeft=6;overflow=hidden;whiteSpace=wrap;html=1;" parent="BuA_VaYUcc9Jglw6k9gA-192" vertex="1"><mxGeometry x="30" width="150" height="30" as="geometry"><mxRectangle width="150" height="30" as="alternateBounds"/></mxGeometry></mxCell><mxCell id="BuA_VaYUcc9Jglw6k9gA-48" value="" style="shape=tableRow;horizontal=0;startSize=0;swimlaneHead=0;swimlaneBody=0;fillColor=none;collapsible=0;dropTarget=0;points=[[0,0.5],[1,0.5]];portConstraint=eastwest;top=0;left=0;right=0;bottom=0;" parent="BuA_VaYUcc9Jglw6k9gA-41" vertex="1"><mxGeometry y="210" width="180" height="30" as="geometry"/></mxCell><mxCell id="BuA_VaYUcc9Jglw6k9gA-49" value="FK" style="shape=partialRectangle;connectable=0;fillColor=none;top=0;left=0;bottom=0;right=0;editable=1;overflow=hidden;whiteSpace=wrap;html=1;" parent="BuA_VaYUcc9Jglw6k9gA-48" vertex="1"><mxGeometry width="30" height="30" as="geometry"><mxRectangle width="30" height="30" as="alternateBounds"/></mxGeometry></mxCell><mxCell id="BuA_VaYUcc9Jglw6k9gA-50" value="question_title_id(str)" style="shape=partialRectangle;connectable=0;fillColor=none;top=0;left=0;bottom=0;right=0;align=left;spacingLeft=6;overflow=hidden;whiteSpace=wrap;html=1;" parent="BuA_VaYUcc9Jglw6k9gA-48" vertex="1"><mxGeometry x="30" width="150" height="30" as="geometry"><mxRectangle width="150" height="30" as="alternateBounds"/></mxGeometry></mxCell><mxCell id="BuA_VaYUcc9Jglw6k9gA-54" value="accesses" style="shape=table;startSize=30;container=1;collapsible=1;childLayout=tableLayout;fixedRows=1;rowLines=0;fontStyle=1;align=center;resizeLast=1;html=1;" parent="1" vertex="1"><mxGeometry x="-30" y="872" width="180" height="90" as="geometry"/></mxCell><mxCell id="BuA_VaYUcc9Jglw6k9gA-55" value="" style="shape=tableRow;horizontal=0;startSize=0;swimlaneHead=0;swimlaneBody=0;fillColor=none;collapsible=0;dropTarget=0;points=[[0,0.5],[1,0.5]];portConstraint=eastwest;top=0;left=0;right=0;bottom=1;" parent="BuA_VaYUcc9Jglw6k9gA-54" vertex="1"><mxGeometry y="30" width="180" height="30" as="geometry"/></mxCell><mxCell id="BuA_VaYUcc9Jglw6k9gA-56" value="PK" style="shape=partialRectangle;connectable=0;fillColor=none;top=0;left=0;bottom=0;right=0;fontStyle=1;overflow=hidden;whiteSpace=wrap;html=1;" parent="BuA_VaYUcc9Jglw6k9gA-55" vertex="1"><mxGeometry width="30" height="30" as="geometry"><mxRectangle width="30" height="30" as="alternateBounds"/></mxGeometry></mxCell><mxCell id="BuA_VaYUcc9Jglw6k9gA-57" value="access_id(int)" style="shape=partialRectangle;connectable=0;fillColor=none;top=0;left=0;bottom=0;right=0;align=left;spacingLeft=6;fontStyle=5;overflow=hidden;whiteSpace=wrap;html=1;" parent="BuA_VaYUcc9Jglw6k9gA-55" vertex="1"><mxGeometry x="30" width="150" height="30" as="geometry"><mxRectangle width="150" height="30" as="alternateBounds"/></mxGeometry></mxCell><mxCell id="BuA_VaYUcc9Jglw6k9gA-58" value="" style="shape=tableRow;horizontal=0;startSize=0;swimlaneHead=0;swimlaneBody=0;fillColor=none;collapsible=0;dropTarget=0;points=[[0,0.5],[1,0.5]];portConstraint=eastwest;top=0;left=0;right=0;bottom=0;" parent="BuA_VaYUcc9Jglw6k9gA-54" vertex="1"><mxGeometry y="60" width="180" height="30" as="geometry"/></mxCell><mxCell id="BuA_VaYUcc9Jglw6k9gA-59" value="" style="shape=partialRectangle;connectable=0;fillColor=none;top=0;left=0;bottom=0;right=0;editable=1;overflow=hidden;whiteSpace=wrap;html=1;" parent="BuA_VaYUcc9Jglw6k9gA-58" vertex="1"><mxGeometry width="30" height="30" as="geometry"><mxRectangle width="30" height="30" as="alternateBounds"/></mxGeometry></mxCell><mxCell id="BuA_VaYUcc9Jglw6k9gA-60" value="name(str)" style="shape=partialRectangle;connectable=0;fillColor=none;top=0;left=0;bottom=0;right=0;align=left;spacingLeft=6;overflow=hidden;whiteSpace=wrap;html=1;" parent="BuA_VaYUcc9Jglw6k9gA-58" vertex="1"><mxGeometry x="30" width="150" height="30" as="geometry"><mxRectangle width="150" height="30" as="alternateBounds"/></mxGeometry></mxCell><mxCell id="BuA_VaYUcc9Jglw6k9gA-67" value="choices" style="shape=table;startSize=30;container=1;collapsible=1;childLayout=tableLayout;fixedRows=1;rowLines=0;fontStyle=1;align=center;resizeLast=1;html=1;" parent="1" vertex="1"><mxGeometry x="-280" y="45" width="180" height="150" as="geometry"/></mxCell><mxCell id="BuA_VaYUcc9Jglw6k9gA-68" value="" style="shape=tableRow;horizontal=0;startSize=0;swimlaneHead=0;swimlaneBody=0;fillColor=none;collapsible=0;dropTarget=0;points=[[0,0.5],[1,0.5]];portConstraint=eastwest;top=0;left=0;right=0;bottom=1;" parent="BuA_VaYUcc9Jglw6k9gA-67" vertex="1"><mxGeometry y="30" width="180" height="30" as="geometry"/></mxCell><mxCell id="BuA_VaYUcc9Jglw6k9gA-69" value="PK" style="shape=partialRectangle;connectable=0;fillColor=none;top=0;left=0;bottom=0;right=0;fontStyle=1;overflow=hidden;whiteSpace=wrap;html=1;" parent="BuA_VaYUcc9Jglw6k9gA-68" vertex="1"><mxGeometry width="30" height="30" as="geometry"><mxRectangle width="30" height="30" as="alternateBounds"/></mxGeometry></mxCell><mxCell id="BuA_VaYUcc9Jglw6k9gA-70" value="choice_id(int)" style="shape=partialRectangle;connectable=0;fillColor=none;top=0;left=0;bottom=0;right=0;align=left;spacingLeft=6;fontStyle=5;overflow=hidden;whiteSpace=wrap;html=1;" parent="BuA_VaYUcc9Jglw6k9gA-68" vertex="1"><mxGeometry x="30" width="150" height="30" as="geometry"><mxRectangle width="150" height="30" as="alternateBounds"/></mxGeometry></mxCell><mxCell id="BuA_VaYUcc9Jglw6k9gA-71" value="" style="shape=tableRow;horizontal=0;startSize=0;swimlaneHead=0;swimlaneBody=0;fillColor=none;collapsible=0;dropTarget=0;points=[[0,0.5],[1,0.5]];portConstraint=eastwest;top=0;left=0;right=0;bottom=0;" parent="BuA_VaYUcc9Jglw6k9gA-67" vertex="1"><mxGeometry y="60" width="180" height="30" as="geometry"/></mxCell><mxCell id="BuA_VaYUcc9Jglw6k9gA-72" value="" style="shape=partialRectangle;connectable=0;fillColor=none;top=0;left=0;bottom=0;right=0;editable=1;overflow=hidden;whiteSpace=wrap;html=1;" parent="BuA_VaYUcc9Jglw6k9gA-71" vertex="1"><mxGeometry width="30" height="30" as="geometry"><mxRectangle width="30" height="30" as="alternateBounds"/></mxGeometry></mxCell><mxCell id="BuA_VaYUcc9Jglw6k9gA-73" value="choice(str)" style="shape=partialRectangle;connectable=0;fillColor=none;top=0;left=0;bottom=0;right=0;align=left;spacingLeft=6;overflow=hidden;whiteSpace=wrap;html=1;" parent="BuA_VaYUcc9Jglw6k9gA-71" vertex="1"><mxGeometry x="30" width="150" height="30" as="geometry"><mxRectangle width="150" height="30" as="alternateBounds"/></mxGeometry></mxCell><mxCell id="BuA_VaYUcc9Jglw6k9gA-74" value="" style="shape=tableRow;horizontal=0;startSize=0;swimlaneHead=0;swimlaneBody=0;fillColor=none;collapsible=0;dropTarget=0;points=[[0,0.5],[1,0.5]];portConstraint=eastwest;top=0;left=0;right=0;bottom=0;" parent="BuA_VaYUcc9Jglw6k9gA-67" vertex="1"><mxGeometry y="90" width="180" height="30" as="geometry"/></mxCell><mxCell id="BuA_VaYUcc9Jglw6k9gA-75" value="" style="shape=partialRectangle;connectable=0;fillColor=none;top=0;left=0;bottom=0;right=0;editable=1;overflow=hidden;whiteSpace=wrap;html=1;" parent="BuA_VaYUcc9Jglw6k9gA-74" vertex="1"><mxGeometry width="30" height="30" as="geometry"><mxRectangle width="30" height="30" as="alternateBounds"/></mxGeometry></mxCell><mxCell id="BuA_VaYUcc9Jglw6k9gA-76" value="correct(bool)" style="shape=partialRectangle;connectable=0;fillColor=none;top=0;left=0;bottom=0;right=0;align=left;spacingLeft=6;overflow=hidden;whiteSpace=wrap;html=1;" parent="BuA_VaYUcc9Jglw6k9gA-74" vertex="1"><mxGeometry x="30" width="150" height="30" as="geometry"><mxRectangle width="150" height="30" as="alternateBounds"/></mxGeometry></mxCell><mxCell id="BuA_VaYUcc9Jglw6k9gA-77" value="" style="shape=tableRow;horizontal=0;startSize=0;swimlaneHead=0;swimlaneBody=0;fillColor=none;collapsible=0;dropTarget=0;points=[[0,0.5],[1,0.5]];portConstraint=eastwest;top=0;left=0;right=0;bottom=0;" parent="BuA_VaYUcc9Jglw6k9gA-67" vertex="1"><mxGeometry y="120" width="180" height="30" as="geometry"/></mxCell><mxCell id="BuA_VaYUcc9Jglw6k9gA-78" value="FK" style="shape=partialRectangle;connectable=0;fillColor=none;top=0;left=0;bottom=0;right=0;editable=1;overflow=hidden;whiteSpace=wrap;html=1;" parent="BuA_VaYUcc9Jglw6k9gA-77" vertex="1"><mxGeometry width="30" height="30" as="geometry"><mxRectangle width="30" height="30" as="alternateBounds"/></mxGeometry></mxCell><mxCell id="BuA_VaYUcc9Jglw6k9gA-79" value="question_id(int)" style="shape=partialRectangle;connectable=0;fillColor=none;top=0;left=0;bottom=0;right=0;align=left;spacingLeft=6;overflow=hidden;whiteSpace=wrap;html=1;" parent="BuA_VaYUcc9Jglw6k9gA-77" vertex="1"><mxGeometry x="30" width="150" height="30" as="geometry"><mxRectangle width="150" height="30" as="alternateBounds"/></mxGeometry></mxCell><mxCell id="BuA_VaYUcc9Jglw6k9gA-80" value="test_histories" style="shape=table;startSize=30;container=1;collapsible=1;childLayout=tableLayout;fixedRows=1;rowLines=0;fontStyle=1;align=center;resizeLast=1;html=1;" parent="1" vertex="1"><mxGeometry x="-30" y="432" width="180" height="210" as="geometry"/></mxCell><mxCell id="BuA_VaYUcc9Jglw6k9gA-81" value="" style="shape=tableRow;horizontal=0;startSize=0;swimlaneHead=0;swimlaneBody=0;fillColor=none;collapsible=0;dropTarget=0;points=[[0,0.5],[1,0.5]];portConstraint=eastwest;top=0;left=0;right=0;bottom=1;" parent="BuA_VaYUcc9Jglw6k9gA-80" vertex="1"><mxGeometry y="30" width="180" height="30" as="geometry"/></mxCell><mxCell id="BuA_VaYUcc9Jglw6k9gA-82" value="PK" style="shape=partialRectangle;connectable=0;fillColor=none;top=0;left=0;bottom=0;right=0;fontStyle=1;overflow=hidden;whiteSpace=wrap;html=1;" parent="BuA_VaYUcc9Jglw6k9gA-81" vertex="1"><mxGeometry width="30" height="30" as="geometry"><mxRectangle width="30" height="30" as="alternateBounds"/></mxGeometry></mxCell><mxCell id="BuA_VaYUcc9Jglw6k9gA-83" value="test_history_id(str)" style="shape=partialRectangle;connectable=0;fillColor=none;top=0;left=0;bottom=0;right=0;align=left;spacingLeft=6;fontStyle=5;overflow=hidden;whiteSpace=wrap;html=1;" parent="BuA_VaYUcc9Jglw6k9gA-81" vertex="1"><mxGeometry x="30" width="150" height="30" as="geometry"><mxRectangle width="150" height="30" as="alternateBounds"/></mxGeometry></mxCell><mxCell id="BuA_VaYUcc9Jglw6k9gA-84" value="" style="shape=tableRow;horizontal=0;startSize=0;swimlaneHead=0;swimlaneBody=0;fillColor=none;collapsible=0;dropTarget=0;points=[[0,0.5],[1,0.5]];portConstraint=eastwest;top=0;left=0;right=0;bottom=0;" parent="BuA_VaYUcc9Jglw6k9gA-80" vertex="1"><mxGeometry y="60" width="180" height="30" as="geometry"/></mxCell><mxCell id="BuA_VaYUcc9Jglw6k9gA-85" value="" style="shape=partialRectangle;connectable=0;fillColor=none;top=0;left=0;bottom=0;right=0;editable=1;overflow=hidden;whiteSpace=wrap;html=1;" parent="BuA_VaYUcc9Jglw6k9gA-84" vertex="1"><mxGeometry width="30" height="30" as="geometry"><mxRectangle width="30" height="30" as="alternateBounds"/></mxGeometry></mxCell><mxCell id="BuA_VaYUcc9Jglw6k9gA-86" value="score(float)" style="shape=partialRectangle;connectable=0;fillColor=none;top=0;left=0;bottom=0;right=0;align=left;spacingLeft=6;overflow=hidden;whiteSpace=wrap;html=1;" parent="BuA_VaYUcc9Jglw6k9gA-84" vertex="1"><mxGeometry x="30" width="150" height="30" as="geometry"><mxRectangle width="150" height="30" as="alternateBounds"/></mxGeometry></mxCell><mxCell id="BuA_VaYUcc9Jglw6k9gA-87" value="" style="shape=tableRow;horizontal=0;startSize=0;swimlaneHead=0;swimlaneBody=0;fillColor=none;collapsible=0;dropTarget=0;points=[[0,0.5],[1,0.5]];portConstraint=eastwest;top=0;left=0;right=0;bottom=0;" parent="BuA_VaYUcc9Jglw6k9gA-80" vertex="1"><mxGeometry y="90" width="180" height="30" as="geometry"/></mxCell><mxCell id="BuA_VaYUcc9Jglw6k9gA-88" value="" style="shape=partialRectangle;connectable=0;fillColor=none;top=0;left=0;bottom=0;right=0;editable=1;overflow=hidden;whiteSpace=wrap;html=1;" parent="BuA_VaYUcc9Jglw6k9gA-87" vertex="1"><mxGeometry width="30" height="30" as="geometry"><mxRectangle width="30" height="30" as="alternateBounds"/></mxGeometry></mxCell><mxCell id="BuA_VaYUcc9Jglw6k9gA-89" value="started_at(timestamp)" style="shape=partialRectangle;connectable=0;fillColor=none;top=0;left=0;bottom=0;right=0;align=left;spacingLeft=6;overflow=hidden;whiteSpace=wrap;html=1;" parent="BuA_VaYUcc9Jglw6k9gA-87" vertex="1"><mxGeometry x="30" width="150" height="30" as="geometry"><mxRectangle width="150" height="30" as="alternateBounds"/></mxGeometry></mxCell><mxCell id="BuA_VaYUcc9Jglw6k9gA-226" style="shape=tableRow;horizontal=0;startSize=0;swimlaneHead=0;swimlaneBody=0;fillColor=none;collapsible=0;dropTarget=0;points=[[0,0.5],[1,0.5]];portConstraint=eastwest;top=0;left=0;right=0;bottom=0;" parent="BuA_VaYUcc9Jglw6k9gA-80" vertex="1"><mxGeometry y="120" width="180" height="30" as="geometry"/></mxCell><mxCell id="BuA_VaYUcc9Jglw6k9gA-227" style="shape=partialRectangle;connectable=0;fillColor=none;top=0;left=0;bottom=0;right=0;editable=1;overflow=hidden;whiteSpace=wrap;html=1;" parent="BuA_VaYUcc9Jglw6k9gA-226" vertex="1"><mxGeometry width="30" height="30" as="geometry"><mxRectangle width="30" height="30" as="alternateBounds"/></mxGeometry></mxCell><mxCell id="BuA_VaYUcc9Jglw6k9gA-228" value="&lt;span style=&quot;font-family: Helvetica; font-size: 12px; font-style: normal; font-variant-ligatures: normal; font-variant-caps: normal; font-weight: 400; letter-spacing: normal; orphans: 2; text-align: left; text-indent: 0px; text-transform: none; widows: 2; word-spacing: 0px; -webkit-text-stroke-width: 0px; text-decoration-thickness: initial; text-decoration-style: initial; text-decoration-color: initial; float: none; display: inline !important;&quot;&gt;&lt;font color=&quot;#ffffff&quot;&gt;finished_at(timestamp)&lt;/font&gt;&lt;/span&gt;" style="shape=partialRectangle;connectable=0;fillColor=none;top=0;left=0;bottom=0;right=0;align=left;spacingLeft=6;overflow=hidden;whiteSpace=wrap;html=1;" parent="BuA_VaYUcc9Jglw6k9gA-226" vertex="1"><mxGeometry x="30" width="150" height="30" as="geometry"><mxRectangle width="150" height="30" as="alternateBounds"/></mxGeometry></mxCell><mxCell id="BuA_VaYUcc9Jglw6k9gA-90" value="" style="shape=tableRow;horizontal=0;startSize=0;swimlaneHead=0;swimlaneBody=0;fillColor=none;collapsible=0;dropTarget=0;points=[[0,0.5],[1,0.5]];portConstraint=eastwest;top=0;left=0;right=0;bottom=0;" parent="BuA_VaYUcc9Jglw6k9gA-80" vertex="1"><mxGeometry y="150" width="180" height="30" as="geometry"/></mxCell><mxCell id="BuA_VaYUcc9Jglw6k9gA-91" value="FK" style="shape=partialRectangle;connectable=0;fillColor=none;top=0;left=0;bottom=0;right=0;editable=1;overflow=hidden;whiteSpace=wrap;html=1;" parent="BuA_VaYUcc9Jglw6k9gA-90" vertex="1"><mxGeometry width="30" height="30" as="geometry"><mxRectangle width="30" height="30" as="alternateBounds"/></mxGeometry></mxCell><mxCell id="BuA_VaYUcc9Jglw6k9gA-92" value="user_id(str)" style="shape=partialRectangle;connectable=0;fillColor=none;top=0;left=0;bottom=0;right=0;align=left;spacingLeft=6;overflow=hidden;whiteSpace=wrap;html=1;" parent="BuA_VaYUcc9Jglw6k9gA-90" vertex="1"><mxGeometry x="30" width="150" height="30" as="geometry"><mxRectangle width="150" height="30" as="alternateBounds"/></mxGeometry></mxCell><mxCell id="BuA_VaYUcc9Jglw6k9gA-223" style="shape=tableRow;horizontal=0;startSize=0;swimlaneHead=0;swimlaneBody=0;fillColor=none;collapsible=0;dropTarget=0;points=[[0,0.5],[1,0.5]];portConstraint=eastwest;top=0;left=0;right=0;bottom=0;" parent="BuA_VaYUcc9Jglw6k9gA-80" vertex="1"><mxGeometry y="180" width="180" height="30" as="geometry"/></mxCell><mxCell id="BuA_VaYUcc9Jglw6k9gA-224" value="FK" style="shape=partialRectangle;connectable=0;fillColor=none;top=0;left=0;bottom=0;right=0;editable=1;overflow=hidden;whiteSpace=wrap;html=1;" parent="BuA_VaYUcc9Jglw6k9gA-223" vertex="1"><mxGeometry width="30" height="30" as="geometry"><mxRectangle width="30" height="30" as="alternateBounds"/></mxGeometry></mxCell><mxCell id="BuA_VaYUcc9Jglw6k9gA-225" value="question_title_id(str)" style="shape=partialRectangle;connectable=0;fillColor=none;top=0;left=0;bottom=0;right=0;align=left;spacingLeft=6;overflow=hidden;whiteSpace=wrap;html=1;" parent="BuA_VaYUcc9Jglw6k9gA-223" vertex="1"><mxGeometry x="30" width="150" height="30" as="geometry"><mxRectangle width="150" height="30" as="alternateBounds"/></mxGeometry></mxCell><mxCell id="BuA_VaYUcc9Jglw6k9gA-93" value="medias" style="shape=table;startSize=30;container=1;collapsible=1;childLayout=tableLayout;fixedRows=1;rowLines=0;fontStyle=1;align=center;resizeLast=1;html=1;" parent="1" vertex="1"><mxGeometry x="-540" y="240" width="180" height="180" as="geometry"/></mxCell><mxCell id="BuA_VaYUcc9Jglw6k9gA-94" value="" style="shape=tableRow;horizontal=0;startSize=0;swimlaneHead=0;swimlaneBody=0;fillColor=none;collapsible=0;dropTarget=0;points=[[0,0.5],[1,0.5]];portConstraint=eastwest;top=0;left=0;right=0;bottom=1;" parent="BuA_VaYUcc9Jglw6k9gA-93" vertex="1"><mxGeometry y="30" width="180" height="30" as="geometry"/></mxCell><mxCell id="BuA_VaYUcc9Jglw6k9gA-95" value="PK" style="shape=partialRectangle;connectable=0;fillColor=none;top=0;left=0;bottom=0;right=0;fontStyle=1;overflow=hidden;whiteSpace=wrap;html=1;" parent="BuA_VaYUcc9Jglw6k9gA-94" vertex="1"><mxGeometry width="30" height="30" as="geometry"><mxRectangle width="30" height="30" as="alternateBounds"/></mxGeometry></mxCell><mxCell id="BuA_VaYUcc9Jglw6k9gA-96" value="media_id(str)" style="shape=partialRectangle;connectable=0;fillColor=none;top=0;left=0;bottom=0;right=0;align=left;spacingLeft=6;fontStyle=5;overflow=hidden;whiteSpace=wrap;html=1;" parent="BuA_VaYUcc9Jglw6k9gA-94" vertex="1"><mxGeometry x="30" width="150" height="30" as="geometry"><mxRectangle width="150" height="30" as="alternateBounds"/></mxGeometry></mxCell><mxCell id="BuA_VaYUcc9Jglw6k9gA-97" value="" style="shape=tableRow;horizontal=0;startSize=0;swimlaneHead=0;swimlaneBody=0;fillColor=none;collapsible=0;dropTarget=0;points=[[0,0.5],[1,0.5]];portConstraint=eastwest;top=0;left=0;right=0;bottom=0;" parent="BuA_VaYUcc9Jglw6k9gA-93" vertex="1"><mxGeometry y="60" width="180" height="30" as="geometry"/></mxCell><mxCell id="BuA_VaYUcc9Jglw6k9gA-98" value="" style="shape=partialRectangle;connectable=0;fillColor=none;top=0;left=0;bottom=0;right=0;editable=1;overflow=hidden;whiteSpace=wrap;html=1;" parent="BuA_VaYUcc9Jglw6k9gA-97" vertex="1"><mxGeometry width="30" height="30" as="geometry"><mxRectangle width="30" height="30" as="alternateBounds"/></mxGeometry></mxCell><mxCell id="BuA_VaYUcc9Jglw6k9gA-99" value="name(str)" style="shape=partialRectangle;connectable=0;fillColor=none;top=0;left=0;bottom=0;right=0;align=left;spacingLeft=6;overflow=hidden;whiteSpace=wrap;html=1;" parent="BuA_VaYUcc9Jglw6k9gA-97" vertex="1"><mxGeometry x="30" width="150" height="30" as="geometry"><mxRectangle width="150" height="30" as="alternateBounds"/></mxGeometry></mxCell><mxCell id="BuA_VaYUcc9Jglw6k9gA-100" value="" style="shape=tableRow;horizontal=0;startSize=0;swimlaneHead=0;swimlaneBody=0;fillColor=none;collapsible=0;dropTarget=0;points=[[0,0.5],[1,0.5]];portConstraint=eastwest;top=0;left=0;right=0;bottom=0;" parent="BuA_VaYUcc9Jglw6k9gA-93" vertex="1"><mxGeometry y="90" width="180" height="30" as="geometry"/></mxCell><mxCell id="BuA_VaYUcc9Jglw6k9gA-101" value="" style="shape=partialRectangle;connectable=0;fillColor=none;top=0;left=0;bottom=0;right=0;editable=1;overflow=hidden;whiteSpace=wrap;html=1;" parent="BuA_VaYUcc9Jglw6k9gA-100" vertex="1"><mxGeometry width="30" height="30" as="geometry"><mxRectangle width="30" height="30" as="alternateBounds"/></mxGeometry></mxCell><mxCell id="BuA_VaYUcc9Jglw6k9gA-102" value="type(str)" style="shape=partialRectangle;connectable=0;fillColor=none;top=0;left=0;bottom=0;right=0;align=left;spacingLeft=6;overflow=hidden;whiteSpace=wrap;html=1;" parent="BuA_VaYUcc9Jglw6k9gA-100" vertex="1"><mxGeometry x="30" width="150" height="30" as="geometry"><mxRectangle width="150" height="30" as="alternateBounds"/></mxGeometry></mxCell><mxCell id="BuA_VaYUcc9Jglw6k9gA-103" value="" style="shape=tableRow;horizontal=0;startSize=0;swimlaneHead=0;swimlaneBody=0;fillColor=none;collapsible=0;dropTarget=0;points=[[0,0.5],[1,0.5]];portConstraint=eastwest;top=0;left=0;right=0;bottom=0;" parent="BuA_VaYUcc9Jglw6k9gA-93" vertex="1"><mxGeometry y="120" width="180" height="30" as="geometry"/></mxCell><mxCell id="BuA_VaYUcc9Jglw6k9gA-104" value="" style="shape=partialRectangle;connectable=0;fillColor=none;top=0;left=0;bottom=0;right=0;editable=1;overflow=hidden;whiteSpace=wrap;html=1;" parent="BuA_VaYUcc9Jglw6k9gA-103" vertex="1"><mxGeometry width="30" height="30" as="geometry"><mxRectangle width="30" height="30" as="alternateBounds"/></mxGeometry></mxCell><mxCell id="BuA_VaYUcc9Jglw6k9gA-105" value="size(int)" style="shape=partialRectangle;connectable=0;fillColor=none;top=0;left=0;bottom=0;right=0;align=left;spacingLeft=6;overflow=hidden;whiteSpace=wrap;html=1;" parent="BuA_VaYUcc9Jglw6k9gA-103" vertex="1"><mxGeometry x="30" width="150" height="30" as="geometry"><mxRectangle width="150" height="30" as="alternateBounds"/></mxGeometry></mxCell><mxCell id="BuA_VaYUcc9Jglw6k9gA-195" style="shape=tableRow;horizontal=0;startSize=0;swimlaneHead=0;swimlaneBody=0;fillColor=none;collapsible=0;dropTarget=0;points=[[0,0.5],[1,0.5]];portConstraint=eastwest;top=0;left=0;right=0;bottom=0;" parent="BuA_VaYUcc9Jglw6k9gA-93" vertex="1"><mxGeometry y="150" width="180" height="30" as="geometry"/></mxCell><mxCell id="BuA_VaYUcc9Jglw6k9gA-196" value="FK" style="shape=partialRectangle;connectable=0;fillColor=none;top=0;left=0;bottom=0;right=0;editable=1;overflow=hidden;whiteSpace=wrap;html=1;" parent="BuA_VaYUcc9Jglw6k9gA-195" vertex="1"><mxGeometry width="30" height="30" as="geometry"><mxRectangle width="30" height="30" as="alternateBounds"/></mxGeometry></mxCell><mxCell id="BuA_VaYUcc9Jglw6k9gA-197" value="question_id(int)" style="shape=partialRectangle;connectable=0;fillColor=none;top=0;left=0;bottom=0;right=0;align=left;spacingLeft=6;overflow=hidden;whiteSpace=wrap;html=1;" parent="BuA_VaYUcc9Jglw6k9gA-195" vertex="1"><mxGeometry x="30" width="150" height="30" as="geometry"><mxRectangle width="150" height="30" as="alternateBounds"/></mxGeometry></mxCell><mxCell id="BuA_VaYUcc9Jglw6k9gA-106" value="tests" style="shape=table;startSize=30;container=1;collapsible=1;childLayout=tableLayout;fixedRows=1;rowLines=0;fontStyle=1;align=center;resizeLast=1;html=1;" parent="1" vertex="1"><mxGeometry x="-280" y="510" width="180" height="150" as="geometry"/></mxCell><mxCell id="BuA_VaYUcc9Jglw6k9gA-107" value="" style="shape=tableRow;horizontal=0;startSize=0;swimlaneHead=0;swimlaneBody=0;fillColor=none;collapsible=0;dropTarget=0;points=[[0,0.5],[1,0.5]];portConstraint=eastwest;top=0;left=0;right=0;bottom=1;" parent="BuA_VaYUcc9Jglw6k9gA-106" vertex="1"><mxGeometry y="30" width="180" height="30" as="geometry"/></mxCell><mxCell id="BuA_VaYUcc9Jglw6k9gA-108" value="PK" style="shape=partialRectangle;connectable=0;fillColor=none;top=0;left=0;bottom=0;right=0;fontStyle=1;overflow=hidden;whiteSpace=wrap;html=1;" parent="BuA_VaYUcc9Jglw6k9gA-107" vertex="1"><mxGeometry width="30" height="30" as="geometry"><mxRectangle width="30" height="30" as="alternateBounds"/></mxGeometry></mxCell><mxCell id="BuA_VaYUcc9Jglw6k9gA-109" value="test_id(str)" style="shape=partialRectangle;connectable=0;fillColor=none;top=0;left=0;bottom=0;right=0;align=left;spacingLeft=6;fontStyle=5;overflow=hidden;whiteSpace=wrap;html=1;" parent="BuA_VaYUcc9Jglw6k9gA-107" vertex="1"><mxGeometry x="30" width="150" height="30" as="geometry"><mxRectangle width="150" height="30" as="alternateBounds"/></mxGeometry></mxCell><mxCell id="BuA_VaYUcc9Jglw6k9gA-110" value="" style="shape=tableRow;horizontal=0;startSize=0;swimlaneHead=0;swimlaneBody=0;fillColor=none;collapsible=0;dropTarget=0;points=[[0,0.5],[1,0.5]];portConstraint=eastwest;top=0;left=0;right=0;bottom=0;" parent="BuA_VaYUcc9Jglw6k9gA-106" vertex="1"><mxGeometry y="60" width="180" height="30" as="geometry"/></mxCell><mxCell id="BuA_VaYUcc9Jglw6k9gA-111" value="" style="shape=partialRectangle;connectable=0;fillColor=none;top=0;left=0;bottom=0;right=0;editable=1;overflow=hidden;whiteSpace=wrap;html=1;" parent="BuA_VaYUcc9Jglw6k9gA-110" vertex="1"><mxGeometry width="30" height="30" as="geometry"><mxRectangle width="30" height="30" as="alternateBounds"/></mxGeometry></mxCell><mxCell id="BuA_VaYUcc9Jglw6k9gA-112" value="answer(int)" style="shape=partialRectangle;connectable=0;fillColor=none;top=0;left=0;bottom=0;right=0;align=left;spacingLeft=6;overflow=hidden;whiteSpace=wrap;html=1;" parent="BuA_VaYUcc9Jglw6k9gA-110" vertex="1"><mxGeometry x="30" width="150" height="30" as="geometry"><mxRectangle width="150" height="30" as="alternateBounds"/></mxGeometry></mxCell><mxCell id="BuA_VaYUcc9Jglw6k9gA-113" value="" style="shape=tableRow;horizontal=0;startSize=0;swimlaneHead=0;swimlaneBody=0;fillColor=none;collapsible=0;dropTarget=0;points=[[0,0.5],[1,0.5]];portConstraint=eastwest;top=0;left=0;right=0;bottom=0;" parent="BuA_VaYUcc9Jglw6k9gA-106" vertex="1"><mxGeometry y="90" width="180" height="30" as="geometry"/></mxCell><mxCell id="BuA_VaYUcc9Jglw6k9gA-114" value="FK" style="shape=partialRectangle;connectable=0;fillColor=none;top=0;left=0;bottom=0;right=0;editable=1;overflow=hidden;whiteSpace=wrap;html=1;" parent="BuA_VaYUcc9Jglw6k9gA-113" vertex="1"><mxGeometry width="30" height="30" as="geometry"><mxRectangle width="30" height="30" as="alternateBounds"/></mxGeometry></mxCell><mxCell id="BuA_VaYUcc9Jglw6k9gA-115" value="question_id(int)" style="shape=partialRectangle;connectable=0;fillColor=none;top=0;left=0;bottom=0;right=0;align=left;spacingLeft=6;overflow=hidden;whiteSpace=wrap;html=1;" parent="BuA_VaYUcc9Jglw6k9gA-113" vertex="1"><mxGeometry x="30" width="150" height="30" as="geometry"><mxRectangle width="150" height="30" as="alternateBounds"/></mxGeometry></mxCell><mxCell id="BuA_VaYUcc9Jglw6k9gA-116" value="" style="shape=tableRow;horizontal=0;startSize=0;swimlaneHead=0;swimlaneBody=0;fillColor=none;collapsible=0;dropTarget=0;points=[[0,0.5],[1,0.5]];portConstraint=eastwest;top=0;left=0;right=0;bottom=0;" parent="BuA_VaYUcc9Jglw6k9gA-106" vertex="1"><mxGeometry y="120" width="180" height="30" as="geometry"/></mxCell><mxCell id="BuA_VaYUcc9Jglw6k9gA-117" value="FK" style="shape=partialRectangle;connectable=0;fillColor=none;top=0;left=0;bottom=0;right=0;editable=1;overflow=hidden;whiteSpace=wrap;html=1;" parent="BuA_VaYUcc9Jglw6k9gA-116" vertex="1"><mxGeometry width="30" height="30" as="geometry"><mxRectangle width="30" height="30" as="alternateBounds"/></mxGeometry></mxCell><mxCell id="BuA_VaYUcc9Jglw6k9gA-118" value="test_history_id(str)" style="shape=partialRectangle;connectable=0;fillColor=none;top=0;left=0;bottom=0;right=0;align=left;spacingLeft=6;overflow=hidden;whiteSpace=wrap;html=1;" parent="BuA_VaYUcc9Jglw6k9gA-116" vertex="1"><mxGeometry x="30" width="150" height="30" as="geometry"><mxRectangle width="150" height="30" as="alternateBounds"/></mxGeometry></mxCell><mxCell id="BuA_VaYUcc9Jglw6k9gA-119" value="topics" style="shape=table;startSize=30;container=1;collapsible=1;childLayout=tableLayout;fixedRows=1;rowLines=0;fontStyle=1;align=center;resizeLast=1;html=1;" parent="1" vertex="1"><mxGeometry x="-30" y="662" width="180" height="90" as="geometry"/></mxCell><mxCell id="BuA_VaYUcc9Jglw6k9gA-120" value="" style="shape=tableRow;horizontal=0;startSize=0;swimlaneHead=0;swimlaneBody=0;fillColor=none;collapsible=0;dropTarget=0;points=[[0,0.5],[1,0.5]];portConstraint=eastwest;top=0;left=0;right=0;bottom=1;" parent="BuA_VaYUcc9Jglw6k9gA-119" vertex="1"><mxGeometry y="30" width="180" height="30" as="geometry"/></mxCell><mxCell id="BuA_VaYUcc9Jglw6k9gA-121" value="PK" style="shape=partialRectangle;connectable=0;fillColor=none;top=0;left=0;bottom=0;right=0;fontStyle=1;overflow=hidden;whiteSpace=wrap;html=1;" parent="BuA_VaYUcc9Jglw6k9gA-120" vertex="1"><mxGeometry width="30" height="30" as="geometry"><mxRectangle width="30" height="30" as="alternateBounds"/></mxGeometry></mxCell><mxCell id="BuA_VaYUcc9Jglw6k9gA-122" value="topic_id(int)" style="shape=partialRectangle;connectable=0;fillColor=none;top=0;left=0;bottom=0;right=0;align=left;spacingLeft=6;fontStyle=5;overflow=hidden;whiteSpace=wrap;html=1;" parent="BuA_VaYUcc9Jglw6k9gA-120" vertex="1"><mxGeometry x="30" width="150" height="30" as="geometry"><mxRectangle width="150" height="30" as="alternateBounds"/></mxGeometry></mxCell><mxCell id="BuA_VaYUcc9Jglw6k9gA-123" value="" style="shape=tableRow;horizontal=0;startSize=0;swimlaneHead=0;swimlaneBody=0;fillColor=none;collapsible=0;dropTarget=0;points=[[0,0.5],[1,0.5]];portConstraint=eastwest;top=0;left=0;right=0;bottom=0;" parent="BuA_VaYUcc9Jglw6k9gA-119" vertex="1"><mxGeometry y="60" width="180" height="30" as="geometry"/></mxCell><mxCell id="BuA_VaYUcc9Jglw6k9gA-124" value="" style="shape=partialRectangle;connectable=0;fillColor=none;top=0;left=0;bottom=0;right=0;editable=1;overflow=hidden;whiteSpace=wrap;html=1;" parent="BuA_VaYUcc9Jglw6k9gA-123" vertex="1"><mxGeometry width="30" height="30" as="geometry"><mxRectangle width="30" height="30" as="alternateBounds"/></mxGeometry></mxCell><mxCell id="BuA_VaYUcc9Jglw6k9gA-125" value="name(str)" style="shape=partialRectangle;connectable=0;fillColor=none;top=0;left=0;bottom=0;right=0;align=left;spacingLeft=6;overflow=hidden;whiteSpace=wrap;html=1;" parent="BuA_VaYUcc9Jglw6k9gA-123" vertex="1"><mxGeometry x="30" width="150" height="30" as="geometry"><mxRectangle width="150" height="30" as="alternateBounds"/></mxGeometry></mxCell><mxCell id="BuA_VaYUcc9Jglw6k9gA-132" value="difficulties" style="shape=table;startSize=30;container=1;collapsible=1;childLayout=tableLayout;fixedRows=1;rowLines=0;fontStyle=1;align=center;resizeLast=1;html=1;" parent="1" vertex="1"><mxGeometry x="-30" y="767" width="180" height="90" as="geometry"/></mxCell><mxCell id="BuA_VaYUcc9Jglw6k9gA-133" value="" style="shape=tableRow;horizontal=0;startSize=0;swimlaneHead=0;swimlaneBody=0;fillColor=none;collapsible=0;dropTarget=0;points=[[0,0.5],[1,0.5]];portConstraint=eastwest;top=0;left=0;right=0;bottom=1;" parent="BuA_VaYUcc9Jglw6k9gA-132" vertex="1"><mxGeometry y="30" width="180" height="30" as="geometry"/></mxCell><mxCell id="BuA_VaYUcc9Jglw6k9gA-134" value="PK" style="shape=partialRectangle;connectable=0;fillColor=none;top=0;left=0;bottom=0;right=0;fontStyle=1;overflow=hidden;whiteSpace=wrap;html=1;" parent="BuA_VaYUcc9Jglw6k9gA-133" vertex="1"><mxGeometry width="30" height="30" as="geometry"><mxRectangle width="30" height="30" as="alternateBounds"/></mxGeometry></mxCell><mxCell id="BuA_VaYUcc9Jglw6k9gA-135" value="difficulty_id(int)" style="shape=partialRectangle;connectable=0;fillColor=none;top=0;left=0;bottom=0;right=0;align=left;spacingLeft=6;fontStyle=5;overflow=hidden;whiteSpace=wrap;html=1;" parent="BuA_VaYUcc9Jglw6k9gA-133" vertex="1"><mxGeometry x="30" width="150" height="30" as="geometry"><mxRectangle width="150" height="30" as="alternateBounds"/></mxGeometry></mxCell><mxCell id="BuA_VaYUcc9Jglw6k9gA-136" value="" style="shape=tableRow;horizontal=0;startSize=0;swimlaneHead=0;swimlaneBody=0;fillColor=none;collapsible=0;dropTarget=0;points=[[0,0.5],[1,0.5]];portConstraint=eastwest;top=0;left=0;right=0;bottom=0;" parent="BuA_VaYUcc9Jglw6k9gA-132" vertex="1"><mxGeometry y="60" width="180" height="30" as="geometry"/></mxCell><mxCell id="BuA_VaYUcc9Jglw6k9gA-137" value="" style="shape=partialRectangle;connectable=0;fillColor=none;top=0;left=0;bottom=0;right=0;editable=1;overflow=hidden;whiteSpace=wrap;html=1;" parent="BuA_VaYUcc9Jglw6k9gA-136" vertex="1"><mxGeometry width="30" height="30" as="geometry"><mxRectangle width="30" height="30" as="alternateBounds"/></mxGeometry></mxCell><mxCell id="BuA_VaYUcc9Jglw6k9gA-138" value="name(str)" style="shape=partialRectangle;connectable=0;fillColor=none;top=0;left=0;bottom=0;right=0;align=left;spacingLeft=6;overflow=hidden;whiteSpace=wrap;html=1;" parent="BuA_VaYUcc9Jglw6k9gA-136" vertex="1"><mxGeometry x="30" width="150" height="30" as="geometry"><mxRectangle width="150" height="30" as="alternateBounds"/></mxGeometry></mxCell><mxCell id="BuA_VaYUcc9Jglw6k9gA-145" value="question_titles" style="shape=table;startSize=30;container=1;collapsible=1;childLayout=tableLayout;fixedRows=1;rowLines=0;fontStyle=1;align=center;resizeLast=1;html=1;" parent="1" vertex="1"><mxGeometry x="-30" y="45" width="180" height="360" as="geometry"/></mxCell><mxCell id="BuA_VaYUcc9Jglw6k9gA-146" value="" style="shape=tableRow;horizontal=0;startSize=0;swimlaneHead=0;swimlaneBody=0;fillColor=none;collapsible=0;dropTarget=0;points=[[0,0.5],[1,0.5]];portConstraint=eastwest;top=0;left=0;right=0;bottom=1;" parent="BuA_VaYUcc9Jglw6k9gA-145" vertex="1"><mxGeometry y="30" width="180" height="30" as="geometry"/></mxCell><mxCell id="BuA_VaYUcc9Jglw6k9gA-147" value="PK" style="shape=partialRectangle;connectable=0;fillColor=none;top=0;left=0;bottom=0;right=0;fontStyle=1;overflow=hidden;whiteSpace=wrap;html=1;" parent="BuA_VaYUcc9Jglw6k9gA-146" vertex="1"><mxGeometry width="30" height="30" as="geometry"><mxRectangle width="30" height="30" as="alternateBounds"/></mxGeometry></mxCell><mxCell id="BuA_VaYUcc9Jglw6k9gA-148" value="question_title_id(str)" style="shape=partialRectangle;connectable=0;fillColor=none;top=0;left=0;bottom=0;right=0;align=left;spacingLeft=6;fontStyle=5;overflow=hidden;whiteSpace=wrap;html=1;" parent="BuA_VaYUcc9Jglw6k9gA-146" vertex="1"><mxGeometry x="30" width="150" height="30" as="geometry"><mxRectangle width="150" height="30" as="alternateBounds"/></mxGeometry></mxCell><mxCell id="BuA_VaYUcc9Jglw6k9gA-149" value="" style="shape=tableRow;horizontal=0;startSize=0;swimlaneHead=0;swimlaneBody=0;fillColor=none;collapsible=0;dropTarget=0;points=[[0,0.5],[1,0.5]];portConstraint=eastwest;top=0;left=0;right=0;bottom=0;" parent="BuA_VaYUcc9Jglw6k9gA-145" vertex="1"><mxGeometry y="60" width="180" height="30" as="geometry"/></mxCell><mxCell id="BuA_VaYUcc9Jglw6k9gA-150" value="" style="shape=partialRectangle;connectable=0;fillColor=none;top=0;left=0;bottom=0;right=0;editable=1;overflow=hidden;whiteSpace=wrap;html=1;" parent="BuA_VaYUcc9Jglw6k9gA-149" vertex="1"><mxGeometry width="30" height="30" as="geometry"><mxRectangle width="30" height="30" as="alternateBounds"/></mxGeometry></mxCell><mxCell id="BuA_VaYUcc9Jglw6k9gA-151" value="title(str)" style="shape=partialRectangle;connectable=0;fillColor=none;top=0;left=0;bottom=0;right=0;align=left;spacingLeft=6;overflow=hidden;whiteSpace=wrap;html=1;" parent="BuA_VaYUcc9Jglw6k9gA-149" vertex="1"><mxGeometry x="30" width="150" height="30" as="geometry"><mxRectangle width="150" height="30" as="alternateBounds"/></mxGeometry></mxCell><mxCell id="BuA_VaYUcc9Jglw6k9gA-217" style="shape=tableRow;horizontal=0;startSize=0;swimlaneHead=0;swimlaneBody=0;fillColor=none;collapsible=0;dropTarget=0;points=[[0,0.5],[1,0.5]];portConstraint=eastwest;top=0;left=0;right=0;bottom=0;" parent="BuA_VaYUcc9Jglw6k9gA-145" vertex="1"><mxGeometry y="90" width="180" height="30" as="geometry"/></mxCell><mxCell id="BuA_VaYUcc9Jglw6k9gA-218" style="shape=partialRectangle;connectable=0;fillColor=none;top=0;left=0;bottom=0;right=0;editable=1;overflow=hidden;whiteSpace=wrap;html=1;" parent="BuA_VaYUcc9Jglw6k9gA-217" vertex="1"><mxGeometry width="30" height="30" as="geometry"><mxRectangle width="30" height="30" as="alternateBounds"/></mxGeometry></mxCell><mxCell id="BuA_VaYUcc9Jglw6k9gA-219" value="token(str)" style="shape=partialRectangle;connectable=0;fillColor=none;top=0;left=0;bottom=0;right=0;align=left;spacingLeft=6;overflow=hidden;whiteSpace=wrap;html=1;" parent="BuA_VaYUcc9Jglw6k9gA-217" vertex="1"><mxGeometry x="30" width="150" height="30" as="geometry"><mxRectangle width="150" height="30" as="alternateBounds"/></mxGeometry></mxCell><mxCell id="BuA_VaYUcc9Jglw6k9gA-220" style="shape=tableRow;horizontal=0;startSize=0;swimlaneHead=0;swimlaneBody=0;fillColor=none;collapsible=0;dropTarget=0;points=[[0,0.5],[1,0.5]];portConstraint=eastwest;top=0;left=0;right=0;bottom=0;" parent="BuA_VaYUcc9Jglw6k9gA-145" vertex="1"><mxGeometry y="120" width="180" height="30" as="geometry"/></mxCell><mxCell id="BuA_VaYUcc9Jglw6k9gA-221" style="shape=partialRectangle;connectable=0;fillColor=none;top=0;left=0;bottom=0;right=0;editable=1;overflow=hidden;whiteSpace=wrap;html=1;" parent="BuA_VaYUcc9Jglw6k9gA-220" vertex="1"><mxGeometry width="30" height="30" as="geometry"><mxRectangle width="30" height="30" as="alternateBounds"/></mxGeometry></mxCell><mxCell id="BuA_VaYUcc9Jglw6k9gA-222" value="started(bool)" style="shape=partialRectangle;connectable=0;fillColor=none;top=0;left=0;bottom=0;right=0;align=left;spacingLeft=6;overflow=hidden;whiteSpace=wrap;html=1;" parent="BuA_VaYUcc9Jglw6k9gA-220" vertex="1"><mxGeometry x="30" width="150" height="30" as="geometry"><mxRectangle width="150" height="30" as="alternateBounds"/></mxGeometry></mxCell><mxCell id="EGh9QBvFToGiWh8jhGI2-1" style="shape=tableRow;horizontal=0;startSize=0;swimlaneHead=0;swimlaneBody=0;fillColor=none;collapsible=0;dropTarget=0;points=[[0,0.5],[1,0.5]];portConstraint=eastwest;top=0;left=0;right=0;bottom=0;" parent="BuA_VaYUcc9Jglw6k9gA-145" vertex="1"><mxGeometry y="150" width="180" height="30" as="geometry"/></mxCell><mxCell id="EGh9QBvFToGiWh8jhGI2-2" style="shape=partialRectangle;connectable=0;fillColor=none;top=0;left=0;bottom=0;right=0;editable=1;overflow=hidden;whiteSpace=wrap;html=1;" parent="EGh9QBvFToGiWh8jhGI2-1" vertex="1"><mxGeometry width="30" height="30" as="geometry"><mxRectangle width="30" height="30" as="alternateBounds"/></mxGeometry></mxCell><mxCell id="EGh9QBvFToGiWh8jhGI2-3" value="opened(bool)" style="shape=partialRectangle;connectable=0;fillColor=none;top=0;left=0;bottom=0;right=0;align=left;spacingLeft=6;overflow=hidden;whiteSpace=wrap;html=1;" parent="EGh9QBvFToGiWh8jhGI2-1" vertex="1"><mxGeometry x="30" width="150" height="30" as="geometry"><mxRectangle width="150" height="30" as="alternateBounds"/></mxGeometry></mxCell><mxCell id="BuA_VaYUcc9Jglw6k9gA-168" style="shape=tableRow;horizontal=0;startSize=0;swimlaneHead=0;swimlaneBody=0;fillColor=none;collapsible=0;dropTarget=0;points=[[0,0.5],[1,0.5]];portConstraint=eastwest;top=0;left=0;right=0;bottom=0;" parent="BuA_VaYUcc9Jglw6k9gA-145" vertex="1"><mxGeometry y="180" width="180" height="30" as="geometry"/></mxCell><mxCell id="BuA_VaYUcc9Jglw6k9gA-169" style="shape=partialRectangle;connectable=0;fillColor=none;top=0;left=0;bottom=0;right=0;editable=1;overflow=hidden;whiteSpace=wrap;html=1;" parent="BuA_VaYUcc9Jglw6k9gA-168" vertex="1"><mxGeometry width="30" height="30" as="geometry"><mxRectangle width="30" height="30" as="alternateBounds"/></mxGeometry></mxCell><mxCell id="BuA_VaYUcc9Jglw6k9gA-170" value="created_at(timestamp)" style="shape=partialRectangle;connectable=0;fillColor=none;top=0;left=0;bottom=0;right=0;align=left;spacingLeft=6;overflow=hidden;whiteSpace=wrap;html=1;" parent="BuA_VaYUcc9Jglw6k9gA-168" vertex="1"><mxGeometry x="30" width="150" height="30" as="geometry"><mxRectangle width="150" height="30" as="alternateBounds"/></mxGeometry></mxCell><mxCell id="BuA_VaYUcc9Jglw6k9gA-171" style="shape=tableRow;horizontal=0;startSize=0;swimlaneHead=0;swimlaneBody=0;fillColor=none;collapsible=0;dropTarget=0;points=[[0,0.5],[1,0.5]];portConstraint=eastwest;top=0;left=0;right=0;bottom=0;" parent="BuA_VaYUcc9Jglw6k9gA-145" vertex="1"><mxGeometry y="210" width="180" height="30" as="geometry"/></mxCell><mxCell id="BuA_VaYUcc9Jglw6k9gA-172" style="shape=partialRectangle;connectable=0;fillColor=none;top=0;left=0;bottom=0;right=0;editable=1;overflow=hidden;whiteSpace=wrap;html=1;" parent="BuA_VaYUcc9Jglw6k9gA-171" vertex="1"><mxGeometry width="30" height="30" as="geometry"><mxRectangle width="30" height="30" as="alternateBounds"/></mxGeometry></mxCell><mxCell id="BuA_VaYUcc9Jglw6k9gA-173" value="updated_at(timestamp)" style="shape=partialRectangle;connectable=0;fillColor=none;top=0;left=0;bottom=0;right=0;align=left;spacingLeft=6;overflow=hidden;whiteSpace=wrap;html=1;" parent="BuA_VaYUcc9Jglw6k9gA-171" vertex="1"><mxGeometry x="30" width="150" height="30" as="geometry"><mxRectangle width="150" height="30" as="alternateBounds"/></mxGeometry></mxCell><mxCell id="BuA_VaYUcc9Jglw6k9gA-165" style="shape=tableRow;horizontal=0;startSize=0;swimlaneHead=0;swimlaneBody=0;fillColor=none;collapsible=0;dropTarget=0;points=[[0,0.5],[1,0.5]];portConstraint=eastwest;top=0;left=0;right=0;bottom=0;" parent="BuA_VaYUcc9Jglw6k9gA-145" vertex="1"><mxGeometry y="240" width="180" height="30" as="geometry"/></mxCell><mxCell id="BuA_VaYUcc9Jglw6k9gA-166" value="FK" style="shape=partialRectangle;connectable=0;fillColor=none;top=0;left=0;bottom=0;right=0;editable=1;overflow=hidden;whiteSpace=wrap;html=1;" parent="BuA_VaYUcc9Jglw6k9gA-165" vertex="1"><mxGeometry width="30" height="30" as="geometry"><mxRectangle width="30" height="30" as="alternateBounds"/></mxGeometry></mxCell><mxCell id="BuA_VaYUcc9Jglw6k9gA-167" value="user_id(str)" style="shape=partialRectangle;connectable=0;fillColor=none;top=0;left=0;bottom=0;right=0;align=left;spacingLeft=6;overflow=hidden;whiteSpace=wrap;html=1;" parent="BuA_VaYUcc9Jglw6k9gA-165" vertex="1"><mxGeometry x="30" width="150" height="30" as="geometry"><mxRectangle width="150" height="30" as="alternateBounds"/></mxGeometry></mxCell><mxCell id="BuA_VaYUcc9Jglw6k9gA-152" value="" style="shape=tableRow;horizontal=0;startSize=0;swimlaneHead=0;swimlaneBody=0;fillColor=none;collapsible=0;dropTarget=0;points=[[0,0.5],[1,0.5]];portConstraint=eastwest;top=0;left=0;right=0;bottom=0;" parent="BuA_VaYUcc9Jglw6k9gA-145" vertex="1"><mxGeometry y="270" width="180" height="30" as="geometry"/></mxCell><mxCell id="BuA_VaYUcc9Jglw6k9gA-153" value="FK" style="shape=partialRectangle;connectable=0;fillColor=none;top=0;left=0;bottom=0;right=0;editable=1;overflow=hidden;whiteSpace=wrap;html=1;" parent="BuA_VaYUcc9Jglw6k9gA-152" vertex="1"><mxGeometry width="30" height="30" as="geometry"><mxRectangle width="30" height="30" as="alternateBounds"/></mxGeometry></mxCell><mxCell id="BuA_VaYUcc9Jglw6k9gA-154" value="topic_id(int)" style="shape=partialRectangle;connectable=0;fillColor=none;top=0;left=0;bottom=0;right=0;align=left;spacingLeft=6;overflow=hidden;whiteSpace=wrap;html=1;" parent="BuA_VaYUcc9Jglw6k9gA-152" vertex="1"><mxGeometry x="30" width="150" height="30" as="geometry"><mxRectangle width="150" height="30" as="alternateBounds"/></mxGeometry></mxCell><mxCell id="BuA_VaYUcc9Jglw6k9gA-155" value="" style="shape=tableRow;horizontal=0;startSize=0;swimlaneHead=0;swimlaneBody=0;fillColor=none;collapsible=0;dropTarget=0;points=[[0,0.5],[1,0.5]];portConstraint=eastwest;top=0;left=0;right=0;bottom=0;" parent="BuA_VaYUcc9Jglw6k9gA-145" vertex="1"><mxGeometry y="300" width="180" height="30" as="geometry"/></mxCell><mxCell id="BuA_VaYUcc9Jglw6k9gA-156" value="FK" style="shape=partialRectangle;connectable=0;fillColor=none;top=0;left=0;bottom=0;right=0;editable=1;overflow=hidden;whiteSpace=wrap;html=1;" parent="BuA_VaYUcc9Jglw6k9gA-155" vertex="1"><mxGeometry width="30" height="30" as="geometry"><mxRectangle width="30" height="30" as="alternateBounds"/></mxGeometry></mxCell><mxCell id="BuA_VaYUcc9Jglw6k9gA-157" value="difficulty_id(int)" style="shape=partialRectangle;connectable=0;fillColor=none;top=0;left=0;bottom=0;right=0;align=left;spacingLeft=6;overflow=hidden;whiteSpace=wrap;html=1;" parent="BuA_VaYUcc9Jglw6k9gA-155" vertex="1"><mxGeometry x="30" width="150" height="30" as="geometry"><mxRectangle width="150" height="30" as="alternateBounds"/></mxGeometry></mxCell><mxCell id="BuA_VaYUcc9Jglw6k9gA-180" style="shape=tableRow;horizontal=0;startSize=0;swimlaneHead=0;swimlaneBody=0;fillColor=none;collapsible=0;dropTarget=0;points=[[0,0.5],[1,0.5]];portConstraint=eastwest;top=0;left=0;right=0;bottom=0;" parent="BuA_VaYUcc9Jglw6k9gA-145" vertex="1"><mxGeometry y="330" width="180" height="30" as="geometry"/></mxCell><mxCell id="BuA_VaYUcc9Jglw6k9gA-181" value="FK" style="shape=partialRectangle;connectable=0;fillColor=none;top=0;left=0;bottom=0;right=0;editable=1;overflow=hidden;whiteSpace=wrap;html=1;" parent="BuA_VaYUcc9Jglw6k9gA-180" vertex="1"><mxGeometry width="30" height="30" as="geometry"><mxRectangle width="30" height="30" as="alternateBounds"/></mxGeometry></mxCell><mxCell id="BuA_VaYUcc9Jglw6k9gA-182" value="access_id(int)" style="shape=partialRectangle;connectable=0;fillColor=none;top=0;left=0;bottom=0;right=0;align=left;spacingLeft=6;overflow=hidden;whiteSpace=wrap;html=1;" parent="BuA_VaYUcc9Jglw6k9gA-180" vertex="1"><mxGeometry x="30" width="150" height="30" as="geometry"><mxRectangle width="150" height="30" as="alternateBounds"/></mxGeometry></mxCell><mxCell id="BuA_VaYUcc9Jglw6k9gA-204" value="user_verifies" style="shape=table;startSize=30;container=1;collapsible=1;childLayout=tableLayout;fixedRows=1;rowLines=0;fontStyle=1;align=center;resizeLast=1;html=1;" parent="1" vertex="1"><mxGeometry x="480" y="45" width="180" height="150" as="geometry"/></mxCell><mxCell id="BuA_VaYUcc9Jglw6k9gA-205" value="" style="shape=tableRow;horizontal=0;startSize=0;swimlaneHead=0;swimlaneBody=0;fillColor=none;collapsible=0;dropTarget=0;points=[[0,0.5],[1,0.5]];portConstraint=eastwest;top=0;left=0;right=0;bottom=1;" parent="BuA_VaYUcc9Jglw6k9gA-204" vertex="1"><mxGeometry y="30" width="180" height="30" as="geometry"/></mxCell><mxCell id="BuA_VaYUcc9Jglw6k9gA-206" value="PK" style="shape=partialRectangle;connectable=0;fillColor=none;top=0;left=0;bottom=0;right=0;fontStyle=1;overflow=hidden;whiteSpace=wrap;html=1;" parent="BuA_VaYUcc9Jglw6k9gA-205" vertex="1"><mxGeometry width="30" height="30" as="geometry"><mxRectangle width="30" height="30" as="alternateBounds"/></mxGeometry></mxCell><mxCell id="BuA_VaYUcc9Jglw6k9gA-207" value="user_verify_id(int)" style="shape=partialRectangle;connectable=0;fillColor=none;top=0;left=0;bottom=0;right=0;align=left;spacingLeft=6;fontStyle=5;overflow=hidden;whiteSpace=wrap;html=1;" parent="BuA_VaYUcc9Jglw6k9gA-205" vertex="1"><mxGeometry x="30" width="150" height="30" as="geometry"><mxRectangle width="150" height="30" as="alternateBounds"/></mxGeometry></mxCell><mxCell id="BuA_VaYUcc9Jglw6k9gA-208" value="" style="shape=tableRow;horizontal=0;startSize=0;swimlaneHead=0;swimlaneBody=0;fillColor=none;collapsible=0;dropTarget=0;points=[[0,0.5],[1,0.5]];portConstraint=eastwest;top=0;left=0;right=0;bottom=0;" parent="BuA_VaYUcc9Jglw6k9gA-204" vertex="1"><mxGeometry y="60" width="180" height="30" as="geometry"/></mxCell><mxCell id="BuA_VaYUcc9Jglw6k9gA-209" value="" style="shape=partialRectangle;connectable=0;fillColor=none;top=0;left=0;bottom=0;right=0;editable=1;overflow=hidden;whiteSpace=wrap;html=1;" parent="BuA_VaYUcc9Jglw6k9gA-208" vertex="1"><mxGeometry width="30" height="30" as="geometry"><mxRectangle width="30" height="30" as="alternateBounds"/></mxGeometry></mxCell><mxCell id="BuA_VaYUcc9Jglw6k9gA-210" value="token(str)" style="shape=partialRectangle;connectable=0;fillColor=none;top=0;left=0;bottom=0;right=0;align=left;spacingLeft=6;overflow=hidden;whiteSpace=wrap;html=1;" parent="BuA_VaYUcc9Jglw6k9gA-208" vertex="1"><mxGeometry x="30" width="150" height="30" as="geometry"><mxRectangle width="150" height="30" as="alternateBounds"/></mxGeometry></mxCell><mxCell id="BuA_VaYUcc9Jglw6k9gA-214" style="shape=tableRow;horizontal=0;startSize=0;swimlaneHead=0;swimlaneBody=0;fillColor=none;collapsible=0;dropTarget=0;points=[[0,0.5],[1,0.5]];portConstraint=eastwest;top=0;left=0;right=0;bottom=0;" parent="BuA_VaYUcc9Jglw6k9gA-204" vertex="1"><mxGeometry y="90" width="180" height="30" as="geometry"/></mxCell><mxCell id="BuA_VaYUcc9Jglw6k9gA-215" style="shape=partialRectangle;connectable=0;fillColor=none;top=0;left=0;bottom=0;right=0;editable=1;overflow=hidden;whiteSpace=wrap;html=1;" parent="BuA_VaYUcc9Jglw6k9gA-214" vertex="1"><mxGeometry width="30" height="30" as="geometry"><mxRectangle width="30" height="30" as="alternateBounds"/></mxGeometry></mxCell><mxCell id="BuA_VaYUcc9Jglw6k9gA-216" value="expired_at(timestamp)" style="shape=partialRectangle;connectable=0;fillColor=none;top=0;left=0;bottom=0;right=0;align=left;spacingLeft=6;overflow=hidden;whiteSpace=wrap;html=1;" parent="BuA_VaYUcc9Jglw6k9gA-214" vertex="1"><mxGeometry x="30" width="150" height="30" as="geometry"><mxRectangle width="150" height="30" as="alternateBounds"/></mxGeometry></mxCell><mxCell id="BuA_VaYUcc9Jglw6k9gA-211" style="shape=tableRow;horizontal=0;startSize=0;swimlaneHead=0;swimlaneBody=0;fillColor=none;collapsible=0;dropTarget=0;points=[[0,0.5],[1,0.5]];portConstraint=eastwest;top=0;left=0;right=0;bottom=0;" parent="BuA_VaYUcc9Jglw6k9gA-204" vertex="1"><mxGeometry y="120" width="180" height="30" as="geometry"/></mxCell><mxCell id="BuA_VaYUcc9Jglw6k9gA-212" value="FK" style="shape=partialRectangle;connectable=0;fillColor=none;top=0;left=0;bottom=0;right=0;editable=1;overflow=hidden;whiteSpace=wrap;html=1;" parent="BuA_VaYUcc9Jglw6k9gA-211" vertex="1"><mxGeometry width="30" height="30" as="geometry"><mxRectangle width="30" height="30" as="alternateBounds"/></mxGeometry></mxCell><mxCell id="BuA_VaYUcc9Jglw6k9gA-213" value="&lt;span style=&quot;font-family: Helvetica; font-size: 12px; font-style: normal; font-variant-ligatures: normal; font-variant-caps: normal; font-weight: 400; letter-spacing: normal; orphans: 2; text-align: left; text-indent: 0px; text-transform: none; widows: 2; word-spacing: 0px; -webkit-text-stroke-width: 0px; text-decoration-thickness: initial; text-decoration-style: initial; text-decoration-color: initial; float: none; display: inline !important;&quot;&gt;&lt;font style=&quot;&quot; color=&quot;#ffffff&quot;&gt;user_id(str)&lt;/font&gt;&lt;/span&gt;" style="shape=partialRectangle;connectable=0;fillColor=none;top=0;left=0;bottom=0;right=0;align=left;spacingLeft=6;overflow=hidden;whiteSpace=wrap;html=1;" parent="BuA_VaYUcc9Jglw6k9gA-211" vertex="1"><mxGeometry x="30" width="150" height="30" as="geometry"><mxRectangle width="150" height="30" as="alternateBounds"/></mxGeometry></mxCell><mxCell id="BuA_VaYUcc9Jglw6k9gA-233" value="" style="edgeStyle=orthogonalEdgeStyle;fontSize=12;html=1;endArrow=ERoneToMany;rounded=0;entryX=1;entryY=0.5;entryDx=0;entryDy=0;exitX=0;exitY=0.5;exitDx=0;exitDy=0;" parent="1" source="BuA_VaYUcc9Jglw6k9gA-16" target="BuA_VaYUcc9Jglw6k9gA-12" edge="1"><mxGeometry width="100" height="100" relative="1" as="geometry"><mxPoint x="350" y="390" as="sourcePoint"/><mxPoint x="450" y="290" as="targetPoint"/></mxGeometry></mxCell><mxCell id="BuA_VaYUcc9Jglw6k9gA-234" value="" style="edgeStyle=orthogonalEdgeStyle;fontSize=12;html=1;endArrow=ERmandOne;startArrow=ERmandOne;rounded=0;entryX=1;entryY=0.5;entryDx=0;entryDy=0;exitX=0;exitY=0.5;exitDx=0;exitDy=0;" parent="1" source="BuA_VaYUcc9Jglw6k9gA-211" target="BuA_VaYUcc9Jglw6k9gA-3" edge="1"><mxGeometry width="100" height="100" relative="1" as="geometry"><mxPoint x="350" y="310" as="sourcePoint"/><mxPoint x="450" y="210" as="targetPoint"/></mxGeometry></mxCell><mxCell id="BuA_VaYUcc9Jglw6k9gA-235" value="" style="edgeStyle=orthogonalEdgeStyle;fontSize=12;html=1;endArrow=ERoneToMany;rounded=0;entryX=1;entryY=0.5;entryDx=0;entryDy=0;exitX=0;exitY=0.5;exitDx=0;exitDy=0;" parent="1" source="BuA_VaYUcc9Jglw6k9gA-3" target="BuA_VaYUcc9Jglw6k9gA-165" edge="1"><mxGeometry width="100" height="100" relative="1" as="geometry"><mxPoint x="350" y="310" as="sourcePoint"/><mxPoint x="450" y="210" as="targetPoint"/></mxGeometry></mxCell><mxCell id="BuA_VaYUcc9Jglw6k9gA-236" value="" style="edgeStyle=orthogonalEdgeStyle;fontSize=12;html=1;endArrow=ERoneToMany;rounded=0;entryX=1;entryY=0.5;entryDx=0;entryDy=0;exitX=0;exitY=0.5;exitDx=0;exitDy=0;" parent="1" source="BuA_VaYUcc9Jglw6k9gA-3" target="BuA_VaYUcc9Jglw6k9gA-90" edge="1"><mxGeometry width="100" height="100" relative="1" as="geometry"><mxPoint x="90" y="390" as="sourcePoint"/><mxPoint x="190" y="290" as="targetPoint"/></mxGeometry></mxCell><mxCell id="BuA_VaYUcc9Jglw6k9gA-238" value="" style="edgeStyle=elbowEdgeStyle;fontSize=12;html=1;endArrow=ERoneToMany;rounded=0;exitX=1;exitY=0.5;exitDx=0;exitDy=0;entryX=1;entryY=0.5;entryDx=0;entryDy=0;" parent="1" source="BuA_VaYUcc9Jglw6k9gA-146" target="BuA_VaYUcc9Jglw6k9gA-223" edge="1"><mxGeometry width="100" height="100" relative="1" as="geometry"><mxPoint x="190" y="70" as="sourcePoint"/><mxPoint x="230" y="590" as="targetPoint"/><Array as="points"><mxPoint x="192" y="350"/></Array></mxGeometry></mxCell><mxCell id="BuA_VaYUcc9Jglw6k9gA-239" value="" style="edgeStyle=orthogonalEdgeStyle;fontSize=12;html=1;endArrow=ERoneToMany;rounded=0;entryX=1;entryY=0.5;entryDx=0;entryDy=0;exitX=0;exitY=0.5;exitDx=0;exitDy=0;" parent="1" source="BuA_VaYUcc9Jglw6k9gA-146" target="BuA_VaYUcc9Jglw6k9gA-48" edge="1"><mxGeometry width="100" height="100" relative="1" as="geometry"><mxPoint x="90" y="390" as="sourcePoint"/><mxPoint x="190" y="290" as="targetPoint"/></mxGeometry></mxCell><mxCell id="BuA_VaYUcc9Jglw6k9gA-240" value="" style="edgeStyle=elbowEdgeStyle;fontSize=12;html=1;endArrow=ERoneToMany;rounded=0;" parent="1" source="BuA_VaYUcc9Jglw6k9gA-42" target="BuA_VaYUcc9Jglw6k9gA-77" edge="1"><mxGeometry width="100" height="100" relative="1" as="geometry"><mxPoint x="-80" y="310" as="sourcePoint"/><mxPoint x="-80" y="130" as="targetPoint"/><Array as="points"><mxPoint x="-65" y="230"/></Array></mxGeometry></mxCell><mxCell id="BuA_VaYUcc9Jglw6k9gA-241" value="" style="edgeStyle=elbowEdgeStyle;fontSize=12;html=1;endArrow=ERmandOne;startArrow=ERmandOne;rounded=0;entryX=0;entryY=0.5;entryDx=0;entryDy=0;" parent="1" source="BuA_VaYUcc9Jglw6k9gA-195" target="BuA_VaYUcc9Jglw6k9gA-42" edge="1"><mxGeometry width="100" height="100" relative="1" as="geometry"><mxPoint x="-130" y="430" as="sourcePoint"/><mxPoint x="-460" y="400" as="targetPoint"/><Array as="points"><mxPoint x="-320" y="380"/></Array></mxGeometry></mxCell><mxCell id="BuA_VaYUcc9Jglw6k9gA-242" value="" style="edgeStyle=elbowEdgeStyle;fontSize=12;html=1;endArrow=ERoneToMany;rounded=0;exitX=0;exitY=0.5;exitDx=0;exitDy=0;entryX=0;entryY=0.5;entryDx=0;entryDy=0;" parent="1" source="BuA_VaYUcc9Jglw6k9gA-42" target="BuA_VaYUcc9Jglw6k9gA-113" edge="1"><mxGeometry width="100" height="100" relative="1" as="geometry"><mxPoint x="-130" y="600" as="sourcePoint"/><mxPoint x="-30" y="500" as="targetPoint"/><Array as="points"><mxPoint x="-320" y="450"/></Array></mxGeometry></mxCell><mxCell id="BuA_VaYUcc9Jglw6k9gA-243" value="" style="edgeStyle=elbowEdgeStyle;fontSize=12;html=1;endArrow=ERoneToMany;rounded=0;entryX=1;entryY=0.5;entryDx=0;entryDy=0;exitX=0;exitY=0.5;exitDx=0;exitDy=0;" parent="1" source="BuA_VaYUcc9Jglw6k9gA-81" target="BuA_VaYUcc9Jglw6k9gA-116" edge="1"><mxGeometry width="100" height="100" relative="1" as="geometry"><mxPoint x="-130" y="600" as="sourcePoint"/><mxPoint x="-30" y="500" as="targetPoint"/></mxGeometry></mxCell><mxCell id="BuA_VaYUcc9Jglw6k9gA-244" value="" style="edgeStyle=elbowEdgeStyle;fontSize=12;html=1;endArrow=ERoneToMany;rounded=0;" parent="1" source="BuA_VaYUcc9Jglw6k9gA-120" target="BuA_VaYUcc9Jglw6k9gA-152" edge="1"><mxGeometry width="100" height="100" relative="1" as="geometry"><mxPoint x="-110" y="720" as="sourcePoint"/><mxPoint x="-80" y="300" as="targetPoint"/><Array as="points"><mxPoint x="-65" y="480"/></Array></mxGeometry></mxCell><mxCell id="BuA_VaYUcc9Jglw6k9gA-245" value="" style="edgeStyle=elbowEdgeStyle;fontSize=12;html=1;endArrow=ERoneToMany;rounded=0;" parent="1" source="BuA_VaYUcc9Jglw6k9gA-133" target="BuA_VaYUcc9Jglw6k9gA-155" edge="1"><mxGeometry width="100" height="100" relative="1" as="geometry"><mxPoint x="-120" y="790" as="sourcePoint"/><mxPoint x="-80" y="360" as="targetPoint"/><Array as="points"><mxPoint x="-65" y="555"/></Array></mxGeometry></mxCell><mxCell id="BuA_VaYUcc9Jglw6k9gA-246" value="" style="edgeStyle=elbowEdgeStyle;fontSize=12;html=1;endArrow=ERoneToMany;rounded=0;" parent="1" source="BuA_VaYUcc9Jglw6k9gA-55" target="BuA_VaYUcc9Jglw6k9gA-180" edge="1"><mxGeometry width="100" height="100" relative="1" as="geometry"><mxPoint x="-190" y="890" as="sourcePoint"/><mxPoint x="-80" y="370" as="targetPoint"/><Array as="points"><mxPoint x="-65" y="620"/></Array></mxGeometry></mxCell></root></mxGraphModel></diagram><diagram id="0u08yCbUKaXCHetnwlZ1" name="Use Case"><mxGraphModel dx="937" dy="719" grid="1" gridSize="10" guides="1" tooltips="1" connect="1" arrows="1" fold="1" page="1" pageScale="1" pageWidth="827" pageHeight="1169" math="0" shadow="0"><root><mxCell id="0"/><mxCell id="1" parent="0"/><mxCell id="yR0ZIGR_krYVUqjBsn7--4" value="" style="group;fontSize=14;" parent="1" connectable="0" vertex="1"><mxGeometry x="130" y="120" width="660" height="760" as="geometry"/></mxCell><mxCell id="yR0ZIGR_krYVUqjBsn7--2" value="" style="rounded=0;whiteSpace=wrap;html=1;gradientColor=none;fillColor=none;strokeWidth=3;" parent="yR0ZIGR_krYVUqjBsn7--4" vertex="1"><mxGeometry width="630" height="760" as="geometry"/></mxCell><mxCell id="yR0ZIGR_krYVUqjBsn7--3" value="Online Test System" style="text;html=1;strokeColor=none;fillColor=none;align=center;verticalAlign=middle;whiteSpace=wrap;rounded=0;fontStyle=1;fontSize=20;" parent="yR0ZIGR_krYVUqjBsn7--4" vertex="1"><mxGeometry x="213.38709677419354" y="19.705882352941178" width="203.2258064516129" height="39.411764705882355" as="geometry"/></mxCell><mxCell id="yR0ZIGR_krYVUqjBsn7--6" value="&lt;font style=&quot;font-size: 14px;&quot;&gt;Login&lt;/font&gt;" style="ellipse;whiteSpace=wrap;html=1;" parent="yR0ZIGR_krYVUqjBsn7--4" vertex="1"><mxGeometry x="267.5" y="130" width="95" height="60" as="geometry"/></mxCell><mxCell id="Jt8QS3htLAZ9IzUn_FNB-5" value="&lt;font style=&quot;font-size: 14px;&quot;&gt;Register&lt;/font&gt;" style="ellipse;whiteSpace=wrap;html=1;" parent="yR0ZIGR_krYVUqjBsn7--4" vertex="1"><mxGeometry x="490" y="80" width="95" height="60" as="geometry"/></mxCell><mxCell id="Jt8QS3htLAZ9IzUn_FNB-9" style="rounded=0;orthogonalLoop=1;jettySize=auto;html=1;entryX=0.5;entryY=1;entryDx=0;entryDy=0;dashed=1;" parent="yR0ZIGR_krYVUqjBsn7--4" source="Jt8QS3htLAZ9IzUn_FNB-7" target="yR0ZIGR_krYVUqjBsn7--6" edge="1"><mxGeometry relative="1" as="geometry"/></mxCell><mxCell id="Jt8QS3htLAZ9IzUn_FNB-10" value="&amp;lt;&amp;lt;include&amp;gt;&amp;gt;" style="edgeLabel;html=1;align=center;verticalAlign=middle;resizable=0;points=[];" parent="Jt8QS3htLAZ9IzUn_FNB-9" connectable="0" vertex="1"><mxGeometry x="-0.0211" y="1" relative="1" as="geometry"><mxPoint as="offset"/></mxGeometry></mxCell><mxCell id="Jt8QS3htLAZ9IzUn_FNB-7" value="&lt;font style=&quot;font-size: 14px;&quot;&gt;Manage Question&lt;/font&gt;" style="ellipse;whiteSpace=wrap;html=1;" parent="yR0ZIGR_krYVUqjBsn7--4" vertex="1"><mxGeometry x="450" y="329" width="95" height="60" as="geometry"/></mxCell><mxCell id="Jt8QS3htLAZ9IzUn_FNB-13" style="rounded=0;orthogonalLoop=1;jettySize=auto;html=1;entryX=0;entryY=1;entryDx=0;entryDy=0;dashed=1;" parent="yR0ZIGR_krYVUqjBsn7--4" source="Jt8QS3htLAZ9IzUn_FNB-11" target="Jt8QS3htLAZ9IzUn_FNB-7" edge="1"><mxGeometry relative="1" as="geometry"/></mxCell><mxCell id="Jt8QS3htLAZ9IzUn_FNB-14" value="&amp;lt;&amp;lt;extends&amp;gt;&amp;gt;" style="edgeLabel;html=1;align=center;verticalAlign=middle;resizable=0;points=[];" parent="Jt8QS3htLAZ9IzUn_FNB-13" connectable="0" vertex="1"><mxGeometry x="-0.0885" relative="1" as="geometry"><mxPoint as="offset"/></mxGeometry></mxCell><mxCell id="Jt8QS3htLAZ9IzUn_FNB-11" value="&lt;font style=&quot;font-size: 14px;&quot;&gt;Share Question&lt;/font&gt;" style="ellipse;whiteSpace=wrap;html=1;" parent="yR0ZIGR_krYVUqjBsn7--4" vertex="1"><mxGeometry x="272.5" y="474" width="95" height="60" as="geometry"/></mxCell><mxCell id="0VpN-c0vyhpR3XaReY1b-5" style="rounded=0;orthogonalLoop=1;jettySize=auto;html=1;dashed=1;" parent="yR0ZIGR_krYVUqjBsn7--4" source="TobCkCmcL93ilEpHI1Qh-1" target="0VpN-c0vyhpR3XaReY1b-1" edge="1"><mxGeometry relative="1" as="geometry"/></mxCell><mxCell id="0VpN-c0vyhpR3XaReY1b-14" value="&amp;lt;&amp;lt;extends&amp;gt;&amp;gt;" style="edgeLabel;html=1;align=center;verticalAlign=middle;resizable=0;points=[];" parent="0VpN-c0vyhpR3XaReY1b-5" connectable="0" vertex="1"><mxGeometry x="0.1038" y="-1" relative="1" as="geometry"><mxPoint as="offset"/></mxGeometry></mxCell><mxCell id="TobCkCmcL93ilEpHI1Qh-1" value="&lt;font style=&quot;font-size: 14px;&quot;&gt;Manage Topics&lt;/font&gt;" style="ellipse;whiteSpace=wrap;html=1;" parent="yR0ZIGR_krYVUqjBsn7--4" vertex="1"><mxGeometry x="10" y="304" width="95" height="60" as="geometry"/></mxCell><mxCell id="0VpN-c0vyhpR3XaReY1b-6" style="rounded=0;orthogonalLoop=1;jettySize=auto;html=1;entryX=0.5;entryY=1;entryDx=0;entryDy=0;dashed=1;" parent="yR0ZIGR_krYVUqjBsn7--4" source="TobCkCmcL93ilEpHI1Qh-2" target="0VpN-c0vyhpR3XaReY1b-1" edge="1"><mxGeometry relative="1" as="geometry"/></mxCell><mxCell id="0VpN-c0vyhpR3XaReY1b-15" value="&amp;lt;&amp;lt;extends&amp;gt;&amp;gt;" style="edgeLabel;html=1;align=center;verticalAlign=middle;resizable=0;points=[];" parent="0VpN-c0vyhpR3XaReY1b-6" connectable="0" vertex="1"><mxGeometry x="-0.614" y="-3" relative="1" as="geometry"><mxPoint as="offset"/></mxGeometry></mxCell><mxCell id="TobCkCmcL93ilEpHI1Qh-2" value="&lt;font style=&quot;font-size: 14px;&quot;&gt;Manage Difficulties&lt;/font&gt;" style="ellipse;whiteSpace=wrap;html=1;" parent="yR0ZIGR_krYVUqjBsn7--4" vertex="1"><mxGeometry x="49.999999999999986" y="394" width="95" height="60" as="geometry"/></mxCell><mxCell id="0VpN-c0vyhpR3XaReY1b-9" style="rounded=0;orthogonalLoop=1;jettySize=auto;html=1;entryX=1;entryY=0.5;entryDx=0;entryDy=0;dashed=1;" parent="yR0ZIGR_krYVUqjBsn7--4" source="u2HQSIJVYNjZA4kdu9BK-1" target="0VpN-c0vyhpR3XaReY1b-1" edge="1"><mxGeometry relative="1" as="geometry"/></mxCell><mxCell id="0VpN-c0vyhpR3XaReY1b-10" value="&amp;lt;&amp;lt;extends&amp;gt;&amp;gt;" style="edgeLabel;html=1;align=center;verticalAlign=middle;resizable=0;points=[];" parent="0VpN-c0vyhpR3XaReY1b-9" connectable="0" vertex="1"><mxGeometry x="-0.0711" y="-1" relative="1" as="geometry"><mxPoint as="offset"/></mxGeometry></mxCell><mxCell id="u2HQSIJVYNjZA4kdu9BK-1" value="&lt;font style=&quot;font-size: 14px;&quot;&gt;Manage Access&lt;/font&gt;" style="ellipse;whiteSpace=wrap;html=1;" parent="yR0ZIGR_krYVUqjBsn7--4" vertex="1"><mxGeometry x="310" y="314" width="95" height="60" as="geometry"/></mxCell><mxCell id="0VpN-c0vyhpR3XaReY1b-8" style="rounded=0;orthogonalLoop=1;jettySize=auto;html=1;entryX=1;entryY=1;entryDx=0;entryDy=0;dashed=1;" parent="yR0ZIGR_krYVUqjBsn7--4" source="46hpDaxawcoWCPVQFPqJ-1" target="0VpN-c0vyhpR3XaReY1b-1" edge="1"><mxGeometry relative="1" as="geometry"/></mxCell><mxCell id="0VpN-c0vyhpR3XaReY1b-11" value="&amp;lt;&amp;lt;extends&amp;gt;&amp;gt;" style="edgeLabel;html=1;align=center;verticalAlign=middle;resizable=0;points=[];" parent="0VpN-c0vyhpR3XaReY1b-8" connectable="0" vertex="1"><mxGeometry x="0.005" relative="1" as="geometry"><mxPoint as="offset"/></mxGeometry></mxCell><mxCell id="46hpDaxawcoWCPVQFPqJ-1" value="&lt;font style=&quot;font-size: 14px;&quot;&gt;Manage Users&lt;/font&gt;" style="ellipse;whiteSpace=wrap;html=1;" parent="yR0ZIGR_krYVUqjBsn7--4" vertex="1"><mxGeometry x="272.5" y="394" width="90" height="60" as="geometry"/></mxCell><mxCell id="0VpN-c0vyhpR3XaReY1b-7" style="rounded=0;orthogonalLoop=1;jettySize=auto;html=1;entryX=0.66;entryY=0.981;entryDx=0;entryDy=0;dashed=1;entryPerimeter=0;" parent="yR0ZIGR_krYVUqjBsn7--4" source="46hpDaxawcoWCPVQFPqJ-2" target="0VpN-c0vyhpR3XaReY1b-1" edge="1"><mxGeometry relative="1" as="geometry"/></mxCell><mxCell id="0VpN-c0vyhpR3XaReY1b-12" value="&amp;lt;&amp;lt;extends&amp;gt;&amp;gt;" style="edgeLabel;html=1;align=center;verticalAlign=middle;resizable=0;points=[];" parent="0VpN-c0vyhpR3XaReY1b-7" connectable="0" vertex="1"><mxGeometry x="-0.4169" relative="1" as="geometry"><mxPoint as="offset"/></mxGeometry></mxCell><mxCell id="46hpDaxawcoWCPVQFPqJ-2" value="&lt;font style=&quot;font-size: 14px;&quot;&gt;Manage Roles&lt;/font&gt;" style="ellipse;whiteSpace=wrap;html=1;" parent="yR0ZIGR_krYVUqjBsn7--4" vertex="1"><mxGeometry x="160" y="394" width="90" height="60" as="geometry"/></mxCell><mxCell id="0VpN-c0vyhpR3XaReY1b-3" style="rounded=0;orthogonalLoop=1;jettySize=auto;html=1;entryX=0.5;entryY=1;entryDx=0;entryDy=0;dashed=1;" parent="yR0ZIGR_krYVUqjBsn7--4" source="0VpN-c0vyhpR3XaReY1b-1" target="yR0ZIGR_krYVUqjBsn7--6" edge="1"><mxGeometry relative="1" as="geometry"/></mxCell><mxCell id="0VpN-c0vyhpR3XaReY1b-4" value="&amp;lt;&amp;lt;include&amp;gt;&amp;gt;" style="edgeLabel;html=1;align=center;verticalAlign=middle;resizable=0;points=[];" parent="0VpN-c0vyhpR3XaReY1b-3" connectable="0" vertex="1"><mxGeometry x="-0.047" y="-2" relative="1" as="geometry"><mxPoint as="offset"/></mxGeometry></mxCell><mxCell id="0VpN-c0vyhpR3XaReY1b-1" value="&lt;font style=&quot;font-size: 14px;&quot;&gt;Manage Master Data&lt;/font&gt;" style="ellipse;whiteSpace=wrap;html=1;" parent="yR0ZIGR_krYVUqjBsn7--4" vertex="1"><mxGeometry x="80" y="214" width="130" height="60" as="geometry"/></mxCell><mxCell id="0VpN-c0vyhpR3XaReY1b-17" style="rounded=0;orthogonalLoop=1;jettySize=auto;html=1;entryX=1;entryY=1;entryDx=0;entryDy=0;dashed=1;" parent="yR0ZIGR_krYVUqjBsn7--4" source="0VpN-c0vyhpR3XaReY1b-16" target="yR0ZIGR_krYVUqjBsn7--6" edge="1"><mxGeometry relative="1" as="geometry"/></mxCell><mxCell id="0VpN-c0vyhpR3XaReY1b-18" value="&amp;lt;&amp;lt;include&amp;gt;&amp;gt;" style="edgeLabel;html=1;align=center;verticalAlign=middle;resizable=0;points=[];" parent="0VpN-c0vyhpR3XaReY1b-17" connectable="0" vertex="1"><mxGeometry x="-0.1343" y="1" relative="1" as="geometry"><mxPoint as="offset"/></mxGeometry></mxCell><mxCell id="0VpN-c0vyhpR3XaReY1b-16" value="&lt;font style=&quot;font-size: 14px;&quot;&gt;See Histories Answered Question&lt;/font&gt;" style="ellipse;whiteSpace=wrap;html=1;" parent="yR0ZIGR_krYVUqjBsn7--4" vertex="1"><mxGeometry x="422.5" y="209" width="150" height="70" as="geometry"/></mxCell><mxCell id="0VpN-c0vyhpR3XaReY1b-21" style="rounded=0;orthogonalLoop=1;jettySize=auto;html=1;entryX=0.5;entryY=1;entryDx=0;entryDy=0;dashed=1;" parent="yR0ZIGR_krYVUqjBsn7--4" source="0VpN-c0vyhpR3XaReY1b-20" target="Jt8QS3htLAZ9IzUn_FNB-7" edge="1"><mxGeometry relative="1" as="geometry"/></mxCell><mxCell id="0VpN-c0vyhpR3XaReY1b-22" value="&amp;lt;&amp;lt;extends&amp;gt;&amp;gt;" style="edgeLabel;html=1;align=center;verticalAlign=middle;resizable=0;points=[];" parent="0VpN-c0vyhpR3XaReY1b-21" connectable="0" vertex="1"><mxGeometry x="0.0126" y="-2" relative="1" as="geometry"><mxPoint as="offset"/></mxGeometry></mxCell><mxCell id="0VpN-c0vyhpR3XaReY1b-20" value="&lt;font style=&quot;font-size: 14px;&quot;&gt;See Histories People Answered Questions&lt;/font&gt;" style="ellipse;whiteSpace=wrap;html=1;" parent="yR0ZIGR_krYVUqjBsn7--4" vertex="1"><mxGeometry x="350" y="540" width="150" height="80" as="geometry"/></mxCell><mxCell id="T6tKPcknnDX65DNs48X1-1" value="&lt;font style=&quot;font-size: 14px;&quot;&gt;See List Question&lt;/font&gt;" style="ellipse;whiteSpace=wrap;html=1;" parent="yR0ZIGR_krYVUqjBsn7--4" vertex="1"><mxGeometry x="267.5" y="632" width="95" height="60" as="geometry"/></mxCell><mxCell id="T6tKPcknnDX65DNs48X1-3" style="rounded=0;orthogonalLoop=1;jettySize=auto;html=1;entryX=0;entryY=1;entryDx=0;entryDy=0;dashed=1;" parent="yR0ZIGR_krYVUqjBsn7--4" source="T6tKPcknnDX65DNs48X1-2" target="T6tKPcknnDX65DNs48X1-1" edge="1"><mxGeometry relative="1" as="geometry"/></mxCell><mxCell id="T6tKPcknnDX65DNs48X1-4" value="&amp;lt;&amp;lt;extends&amp;gt;&amp;gt;" style="edgeLabel;html=1;align=center;verticalAlign=middle;resizable=0;points=[];" parent="T6tKPcknnDX65DNs48X1-3" connectable="0" vertex="1"><mxGeometry x="-0.1431" y="2" relative="1" as="geometry"><mxPoint as="offset"/></mxGeometry></mxCell><mxCell id="T6tKPcknnDX65DNs48X1-2" value="&lt;font style=&quot;font-size: 14px;&quot;&gt;Start Test&lt;/font&gt;" style="ellipse;whiteSpace=wrap;html=1;" parent="yR0ZIGR_krYVUqjBsn7--4" vertex="1"><mxGeometry x="65" y="674" width="95" height="60" as="geometry"/></mxCell><mxCell id="T6tKPcknnDX65DNs48X1-6" style="rounded=0;orthogonalLoop=1;jettySize=auto;html=1;entryX=1;entryY=1;entryDx=0;entryDy=0;dashed=1;" parent="yR0ZIGR_krYVUqjBsn7--4" source="T6tKPcknnDX65DNs48X1-5" target="T6tKPcknnDX65DNs48X1-1" edge="1"><mxGeometry relative="1" as="geometry"/></mxCell><mxCell id="T6tKPcknnDX65DNs48X1-7" value="&amp;lt;&amp;lt;extends&amp;gt;&amp;gt;" style="edgeLabel;html=1;align=center;verticalAlign=middle;resizable=0;points=[];" parent="T6tKPcknnDX65DNs48X1-6" connectable="0" vertex="1"><mxGeometry x="0.0247" relative="1" as="geometry"><mxPoint as="offset"/></mxGeometry></mxCell><mxCell id="T6tKPcknnDX65DNs48X1-5" value="&lt;font style=&quot;font-size: 14px;&quot;&gt;See Detail&lt;/font&gt;" style="ellipse;whiteSpace=wrap;html=1;" parent="yR0ZIGR_krYVUqjBsn7--4" vertex="1"><mxGeometry x="490" y="682" width="95" height="60" as="geometry"/></mxCell><mxCell id="CjKJio4Ytcx4p7XHSACk-2" style="rounded=0;orthogonalLoop=1;jettySize=auto;html=1;entryX=1;entryY=1;entryDx=0;entryDy=0;dashed=1;" parent="yR0ZIGR_krYVUqjBsn7--4" source="CjKJio4Ytcx4p7XHSACk-1" target="Jt8QS3htLAZ9IzUn_FNB-7" edge="1"><mxGeometry relative="1" as="geometry"/></mxCell><mxCell id="CjKJio4Ytcx4p7XHSACk-3" value="&amp;lt;&amp;lt;extends&amp;gt;&amp;gt;" style="edgeLabel;html=1;align=center;verticalAlign=middle;resizable=0;points=[];" parent="CjKJio4Ytcx4p7XHSACk-2" connectable="0" vertex="1"><mxGeometry x="-0.6202" y="-2" relative="1" as="geometry"><mxPoint y="-1" as="offset"/></mxGeometry></mxCell><mxCell id="CjKJio4Ytcx4p7XHSACk-1" value="&lt;font style=&quot;font-size: 14px;&quot;&gt;Upload Image&lt;/font&gt;" style="ellipse;whiteSpace=wrap;html=1;" parent="yR0ZIGR_krYVUqjBsn7--4" vertex="1"><mxGeometry x="520" y="500" width="95" height="60" as="geometry"/></mxCell><mxCell id="yR0ZIGR_krYVUqjBsn7--8" style="edgeStyle=orthogonalEdgeStyle;rounded=0;orthogonalLoop=1;jettySize=auto;html=1;" parent="1" source="yR0ZIGR_krYVUqjBsn7--5" target="yR0ZIGR_krYVUqjBsn7--6" edge="1"><mxGeometry relative="1" as="geometry"/></mxCell><mxCell id="0VpN-c0vyhpR3XaReY1b-2" style="rounded=0;orthogonalLoop=1;jettySize=auto;html=1;entryX=0;entryY=0.5;entryDx=0;entryDy=0;" parent="1" source="yR0ZIGR_krYVUqjBsn7--5" target="0VpN-c0vyhpR3XaReY1b-1" edge="1"><mxGeometry relative="1" as="geometry"/></mxCell><mxCell id="yR0ZIGR_krYVUqjBsn7--5" value="Admin" style="shape=umlActor;verticalLabelPosition=bottom;verticalAlign=top;html=1;outlineConnect=0;" parent="1" vertex="1"><mxGeometry x="70" y="250" width="30" height="60" as="geometry"/></mxCell><mxCell id="yR0ZIGR_krYVUqjBsn7--9" style="edgeStyle=orthogonalEdgeStyle;rounded=0;orthogonalLoop=1;jettySize=auto;html=1;entryX=1;entryY=0.5;entryDx=0;entryDy=0;" parent="1" source="yR0ZIGR_krYVUqjBsn7--7" target="yR0ZIGR_krYVUqjBsn7--6" edge="1"><mxGeometry relative="1" as="geometry"/></mxCell><mxCell id="Jt8QS3htLAZ9IzUn_FNB-6" style="rounded=0;orthogonalLoop=1;jettySize=auto;html=1;entryX=1;entryY=0.5;entryDx=0;entryDy=0;" parent="1" source="yR0ZIGR_krYVUqjBsn7--7" target="Jt8QS3htLAZ9IzUn_FNB-5" edge="1"><mxGeometry relative="1" as="geometry"/></mxCell><mxCell id="Jt8QS3htLAZ9IzUn_FNB-8" style="rounded=0;orthogonalLoop=1;jettySize=auto;html=1;entryX=1;entryY=0.5;entryDx=0;entryDy=0;" parent="1" source="yR0ZIGR_krYVUqjBsn7--7" target="Jt8QS3htLAZ9IzUn_FNB-7" edge="1"><mxGeometry relative="1" as="geometry"/></mxCell><mxCell id="0VpN-c0vyhpR3XaReY1b-19" style="rounded=0;orthogonalLoop=1;jettySize=auto;html=1;entryX=1;entryY=0.5;entryDx=0;entryDy=0;" parent="1" source="yR0ZIGR_krYVUqjBsn7--7" target="0VpN-c0vyhpR3XaReY1b-16" edge="1"><mxGeometry relative="1" as="geometry"/></mxCell><mxCell id="XfPh_6uFlQFNHxVQUwOE-1" style="edgeStyle=orthogonalEdgeStyle;rounded=0;orthogonalLoop=1;jettySize=auto;html=1;entryX=1;entryY=0.5;entryDx=0;entryDy=0;" parent="1" source="yR0ZIGR_krYVUqjBsn7--7" target="T6tKPcknnDX65DNs48X1-1" edge="1"><mxGeometry relative="1" as="geometry"><Array as="points"><mxPoint x="795" y="782"/></Array></mxGeometry></mxCell><mxCell id="yR0ZIGR_krYVUqjBsn7--7" value="User" style="shape=umlActor;verticalLabelPosition=bottom;verticalAlign=top;html=1;outlineConnect=0;" parent="1" vertex="1"><mxGeometry x="780" y="250" width="30" height="60" as="geometry"/></mxCell><mxCell id="c_eXy4qZG9p0KfzLkfDb-2" style="rounded=0;orthogonalLoop=1;jettySize=auto;html=1;entryX=0;entryY=0.5;entryDx=0;entryDy=0;" parent="1" source="yR0ZIGR_krYVUqjBsn7--10" target="T6tKPcknnDX65DNs48X1-1" edge="1"><mxGeometry relative="1" as="geometry"/></mxCell><mxCell id="yR0ZIGR_krYVUqjBsn7--10" value="Guest" style="shape=umlActor;verticalLabelPosition=bottom;verticalAlign=top;html=1;outlineConnect=0;" parent="1" vertex="1"><mxGeometry x="70" y="614" width="30" height="60" as="geometry"/></mxCell></root></mxGraphModel></diagram></mxfile>